<svg width="43" height="35" viewBox="0 0 43 35" fill="none" xmlns="http://www.w3.org/2000/svg">
<path d="M2.26645 31.4165H10.6464V32.4965H2.26645V31.4165ZM5.77645 29.3665H7.10645V31.6665H5.77645V29.3665ZM3.13645 24.9865H9.72645V29.5365H3.13645V24.9865ZM8.42645 26.0465H4.44645V28.4865H8.42645V26.0465ZM17.8157 24.3165H19.1557V29.5465H17.8157V24.3165ZM12.9957 29.9665H19.1557V33.4665H12.9957V29.9665ZM17.8457 31.0065H14.2957V32.4165H17.8457V31.0065ZM14.1157 24.7365C15.5557 24.7365 16.6257 25.6565 16.6257 26.9565C16.6257 28.2465 15.5557 29.1765 14.1157 29.1765C12.6757 29.1765 11.5957 28.2465 11.5957 26.9565C11.5957 25.6565 12.6757 24.7365 14.1157 24.7365ZM14.1157 25.8365C13.4157 25.8365 12.8957 26.2465 12.8957 26.9565C12.8957 27.6565 13.4157 28.0665 14.1157 28.0665C14.8157 28.0665 15.3257 27.6565 15.3257 26.9565C15.3257 26.2465 14.8157 25.8365 14.1157 25.8365ZM26.7151 26.7465H28.5951V27.8065H26.7151V26.7465ZM26.6651 29.0565H28.5551V30.1165H26.6651V29.0565ZM29.8551 24.3065H31.1251V33.5665H29.8551V24.3065ZM27.9451 24.5065H29.1851V33.1565H27.9451V24.5065ZM25.8551 25.3965H27.1351C27.1351 28.0265 26.3451 30.1265 23.7651 31.6465L23.0151 30.7165C25.1051 29.4465 25.8551 27.9065 25.8551 25.6665V25.3965ZM23.5451 25.3965H26.3051V26.4565H23.5451V25.3965ZM34.4443 25.4065H35.5243V25.9165C35.5243 27.5665 34.6843 29.0265 32.9343 29.5465L32.2843 28.5165C33.7843 28.0665 34.4443 26.9965 34.4443 25.9165V25.4065ZM34.7143 25.4065H35.7943V25.9165C35.7943 26.9165 36.4243 27.9165 37.8943 28.3465L37.2743 29.3765C35.5343 28.8765 34.7143 27.4865 34.7143 25.9165V25.4065ZM32.6143 25.0365H37.6243V26.1165H32.6143V25.0365ZM34.4543 29.1465H35.7843V31.1365H34.4543V29.1465ZM39.2443 27.9565H40.8743V29.0665H39.2443V27.9565ZM38.3243 24.3065H39.6543V33.5665H38.3243V24.3065ZM32.4043 31.8065L32.2443 30.7365C33.8343 30.7365 36.0043 30.7465 37.8443 30.4865L37.9443 31.4565C36.0143 31.8165 33.9543 31.8165 32.4043 31.8065Z" fill="#52BD6D"/>
<path d="M14.5 4.83325C14.5 3.1764 15.8431 1.83325 17.5 1.83325H26.5C28.1569 1.83325 29.5 3.1764 29.5 4.83325V20.1666H14.5V4.83325Z" fill="#52BD6D"/>
<path fill-rule="evenodd" clip-rule="evenodd" d="M18.625 9.16659C19.6605 9.16659 20.5 8.14057 20.5 6.87492C20.5 5.60927 19.6605 4.58325 18.625 4.58325C17.5895 4.58325 16.75 5.60927 16.75 6.87492C16.75 8.14057 17.5895 9.16659 18.625 9.16659Z" stroke="white" stroke-linecap="round"/>
<path d="M29.5 11.9167H14.5" stroke="white"/>
<path d="M26.5 5.49992H22.75" stroke="white" stroke-linecap="round"/>
<path d="M26.5 8.24992H22.75" stroke="white" stroke-linecap="round"/>
</svg>
