<svg width="30" height="40" viewBox="0 0 30 40" fill="none" xmlns="http://www.w3.org/2000/svg">
<path d="M7.31117 28.8722H8.58117V38.1322H7.31117V28.8722ZM3.64117 32.4222H5.62117V33.4722H3.64117V32.4222ZM5.36117 29.0722H6.60117V37.7222H5.36117V29.0722ZM3.34117 29.9622H4.62117C4.62117 32.6022 3.83117 34.7022 1.23117 36.2122L0.481172 35.2822C2.59117 34.0122 3.34117 32.4722 3.34117 30.2322V29.9622ZM1.00117 29.9622H3.76117V31.0222H1.00117V29.9622ZM12.0604 29.5822H13.1404V30.9322C13.1404 33.3122 12.3204 35.4622 10.4804 36.3122L9.69039 35.2122C11.3004 34.5122 12.0604 32.7322 12.0604 30.9322V29.5822ZM12.3204 29.5822H13.4004V30.9322C13.4004 32.6422 14.1304 34.3422 15.7104 35.0222L14.9304 36.0922C13.1404 35.2722 12.3204 33.2122 12.3204 30.9322V29.5822ZM16.1504 28.8622H17.4904V38.1522H16.1504V28.8622ZM20.0296 29.2422H25.8996V30.2922H20.0296V29.2422ZM19.0096 32.1322H27.3896V33.1822H19.0096V32.1322ZM25.0996 29.2422H26.4096V29.8722C26.4096 30.5322 26.4096 31.3722 26.1696 32.4422L24.8596 32.3222C25.0996 31.2722 25.0996 30.5222 25.0996 29.8722V29.2422ZM19.9396 33.8122H26.3796V36.4222H21.2796V37.3622H19.9496V35.4422H25.0596V34.8422H19.9396V33.8122ZM19.9496 37.0422H26.6196V38.0722H19.9496V37.0422Z" fill="#52BD6D"/>
<path d="M7 8.85865C7 7.75408 7.89543 6.85864 9 6.85864H14.5H20C21.1046 6.85864 22 7.75407 22 8.85864V22.4952C22 23.5998 21.1046 24.4952 20 24.4952H9C7.89543 24.4952 7 23.5998 7 22.4952V8.85865Z" fill="#52BD6D"/>
<path fill-rule="evenodd" clip-rule="evenodd" d="M10 12.7375H18H10Z" fill="white"/>
<path d="M10 12.7375H18" stroke="white" stroke-linecap="round"/>
<path d="M10 16.6567H16" stroke="white" stroke-linecap="round"/>
</svg>
