<svg width="43" height="35" viewBox="0 0 43 35" fill="none" xmlns="http://www.w3.org/2000/svg">
<path d="M15.3108 25.2057C16.7208 25.2057 17.7808 26.0857 17.7808 27.3257C17.7808 28.5557 16.7208 29.4357 15.3108 29.4357C13.9008 29.4357 12.8408 28.5557 12.8408 27.3257C12.8408 26.0857 13.9008 25.2057 15.3108 25.2057ZM15.3108 26.2857C14.6308 26.2857 14.1208 26.6657 14.1208 27.3257C14.1208 27.9857 14.6308 28.3657 15.3108 28.3657C15.9908 28.3657 16.4908 27.9857 16.4908 27.3257C16.4908 26.6657 15.9908 26.2857 15.3108 26.2857ZM19.0608 24.9357H20.4008V29.5657H19.0608V24.9357ZM14.2208 29.9457H20.4008V32.4857H15.5408V33.6057H14.2408V31.5257H19.0808V30.9757H14.2208V29.9457ZM14.2408 33.0657H20.6308V34.0957H14.2408V33.0657ZM26.92 27.1757H28.68V28.2557H26.92V27.1757ZM28.32 24.9357H29.65V30.4357H28.32V24.9357ZM26.51 30.6357C28.47 30.6357 29.68 31.3057 29.68 32.4257C29.68 33.5557 28.47 34.2057 26.51 34.2057C24.55 34.2057 23.34 33.5557 23.34 32.4257C23.34 31.3057 24.55 30.6357 26.51 30.6357ZM26.51 31.6457C25.31 31.6457 24.67 31.8957 24.67 32.4257C24.67 32.9457 25.31 33.1957 26.51 33.1957C27.72 33.1957 28.36 32.9457 28.36 32.4257C28.36 31.8957 27.72 31.6457 26.51 31.6457ZM24.04 25.8657H25.12V26.4457C25.12 28.2157 24.3 29.8357 22.53 30.4357L21.85 29.3857C23.38 28.8657 24.04 27.6357 24.04 26.4457V25.8657ZM24.32 25.8657H25.39V26.4457C25.39 27.5357 26.02 28.6657 27.48 29.1557L26.83 30.2057C25.11 29.6357 24.32 28.0957 24.32 26.4457V25.8657ZM22.21 25.4957H27.19V26.5557H22.21V25.4957Z" fill="#A3A3A3"/>
<path d="M12.875 6.25342C12.875 5.14885 13.7704 4.25342 14.875 4.25342H28.125C29.2296 4.25342 30.125 5.14885 30.125 6.25342V15.8645C30.125 16.9691 29.2296 17.8645 28.125 17.8645H14.875C13.7704 17.8645 12.875 16.9691 12.875 15.8645V6.25342Z" fill="#A3A3A3"/>
<path d="M30.125 7.65625H12.875" stroke="white" stroke-linecap="round"/>
<path d="M16.7083 4.25339V2.552" stroke="#A3A3A3" stroke-linecap="round"/>
<path d="M26.2917 4.25339V2.552" stroke="#A3A3A3" stroke-linecap="round"/>
</svg>
