<svg width="30" height="36" viewBox="0 0 30 36" fill="none" xmlns="http://www.w3.org/2000/svg">
<path d="M2.04117 30.862H2.79117C4.43117 30.862 5.50117 30.822 6.70117 30.602L6.83117 31.672C5.59117 31.902 4.48117 31.952 2.79117 31.952H2.04117V30.862ZM2.04117 25.722H6.23117V26.782H3.37117V31.272H2.04117V25.722ZM8.05117 24.902H9.38117V34.192H8.05117V24.902ZM5.78117 28.092H8.61117V29.172H5.78117V28.092ZM10.8104 32.012H19.1904V33.092H10.8104V32.012ZM14.3204 30.032H15.6504V32.272H14.3204V30.032ZM11.6904 25.492H13.0104V26.912H16.9604V25.492H18.2804V30.312H11.6904V25.492ZM13.0104 27.952V29.252H16.9604V27.952H13.0104ZM26.3796 24.902H27.7196V34.162H26.3796V24.902ZM23.6496 25.862H24.9696C24.9696 28.692 24.0096 31.012 20.7196 32.602L20.0296 31.542C22.6896 30.262 23.6496 28.582 23.6496 26.102V25.862ZM20.5196 25.862H24.2796V26.912H20.5196V25.862Z" fill="#52BD6D"/>
<path fill-rule="evenodd" clip-rule="evenodd" d="M14.4643 13.3765C15.3519 13.3765 16.0715 12.7113 16.0715 11.8908C16.0715 11.0702 15.3519 10.405 14.4643 10.405C13.5767 10.405 12.8572 11.0702 12.8572 11.8908C12.8572 12.7113 13.5767 13.3765 14.4643 13.3765Z" fill="#52BD6D" stroke="#52BD6D" stroke-width="3"/>
<path fill-rule="evenodd" clip-rule="evenodd" d="M4.8215 13.3765C5.7091 13.3765 6.42864 12.7113 6.42864 11.8908C6.42864 11.0702 5.7091 10.405 4.8215 10.405C3.9339 10.405 3.21436 11.0702 3.21436 11.8908C3.21436 12.7113 3.9339 13.3765 4.8215 13.3765Z" fill="#52BD6D" stroke="#52BD6D" stroke-width="3"/>
<path fill-rule="evenodd" clip-rule="evenodd" d="M24.1071 13.3765C24.9947 13.3765 25.7143 12.7113 25.7143 11.8908C25.7143 11.0702 24.9947 10.405 24.1071 10.405C23.2195 10.405 22.5 11.0702 22.5 11.8908C22.5 12.7113 23.2195 13.3765 24.1071 13.3765Z" fill="#52BD6D" stroke="#52BD6D" stroke-width="3"/>
</svg>
