<svg width="40" height="40" viewBox="0 0 40 40" fill="none" xmlns="http://www.w3.org/2000/svg">
<path fill-rule="evenodd" clip-rule="evenodd" d="M30.6272 5.14425L36.2555 10.7527C36.2555 10.7527 36.6366 11.244 36.5659 11.5938C36.4872 11.9711 36.157 12.3837 36.157 12.3837L33.4137 15.1035L24.1108 5.75752C20.1611 1.59917 17.0757 3.25772 17.0757 3.25772C17.0757 3.25772 24.3388 -0.916197 30.6272 5.14425ZM21.9348 5.65602L32.4247 16.1262L28.447 20.1312C28.447 20.1312 27.9402 20.4847 27.5904 20.3905C27.2287 20.2923 26.824 19.9385 26.824 19.9385L19.2701 12.3807C19.1326 12.2431 18.9164 12.2431 18.7868 12.3807L10.5372 20.6225C10.4072 20.756 10.4072 20.9683 10.5372 21.1058L18.7868 29.3514C18.9164 29.4812 19.1326 29.4812 19.2701 29.3514L27.4608 21.1491C27.4608 21.1491 27.6415 21.0076 27.7671 20.9565C27.9717 20.866 28.6123 20.866 28.6123 20.866H35.337C35.337 20.866 35.8911 20.7954 36.17 20.9683C36.398 21.1136 36.4335 21.432 36.4295 21.542C36.0718 30.8371 28.4313 38.3203 19.0579 38.3203C9.45637 38.3203 1.6665 30.5305 1.6665 20.9289C1.6665 12.2942 7.96272 5.12939 16.2123 3.76551C17.1358 3.61618 19.7574 3.48262 21.9348 5.65602Z" fill="#005BAC"/>
</svg>
