<svg width="40" height="40" viewBox="0 0 40 40" fill="none" xmlns="http://www.w3.org/2000/svg">
<path fill-rule="evenodd" clip-rule="evenodd" d="M1.6665 38.3184H38.3199V1.66608H1.6665V38.3184Z" fill="#0090D0"/>
<path fill-rule="evenodd" clip-rule="evenodd" d="M1.6665 1.66632L10.8272 10.8334L19.9921 1.66632H1.6665Z" fill="#0090D0"/>
<path fill-rule="evenodd" clip-rule="evenodd" d="M1.6665 1.66632V19.9919L10.8272 10.8334L1.6665 1.66632Z" fill="#0099D7"/>
<path fill-rule="evenodd" clip-rule="evenodd" d="M1.66748 19.9913H19.992L10.8335 10.8275L1.66748 19.9913Z" fill="#0090D0"/>
<path fill-rule="evenodd" clip-rule="evenodd" d="M19.9924 1.66632L10.8328 10.827L19.9924 19.9919V1.66632Z" fill="#0082C8"/>
<path fill-rule="evenodd" clip-rule="evenodd" d="M19.9927 1.66632V19.9919L29.1533 10.8334L19.9927 1.66632Z" fill="#0070BA"/>
<path fill-rule="evenodd" clip-rule="evenodd" d="M19.9933 19.9913H38.3189L29.1593 10.8275L19.9933 19.9913Z" fill="#004C97"/>
<path fill-rule="evenodd" clip-rule="evenodd" d="M1.6665 19.9915L10.8272 29.1585L19.9921 19.9915H1.6665Z" fill="#0082C8"/>
<path fill-rule="evenodd" clip-rule="evenodd" d="M1.6665 38.3184L10.8272 29.1578L1.6665 19.9918V38.3184Z" fill="#0070BA"/>
<path fill-rule="evenodd" clip-rule="evenodd" d="M1.66748 38.3184H19.992L10.8335 29.1513L1.66748 38.3184Z" fill="#0066B2"/>
<path fill-rule="evenodd" clip-rule="evenodd" d="M10.8337 29.1515L19.9933 38.3186V19.993L10.8337 29.1515Z" fill="#00519B"/>
<path fill-rule="evenodd" clip-rule="evenodd" d="M19.9927 19.9915L29.1533 29.1585L38.3183 19.9915H19.9927Z" fill="#1B3281"/>
<path fill-rule="evenodd" clip-rule="evenodd" d="M19.9927 38.3184L29.1533 29.1578L19.9927 19.9918V38.3184Z" fill="#004C97"/>
<path fill-rule="evenodd" clip-rule="evenodd" d="M19.9933 38.3184H38.3189L29.1593 29.1513L19.9933 38.3184Z" fill="#1B3281"/>
<path fill-rule="evenodd" clip-rule="evenodd" d="M29.1595 29.1515L38.3202 38.3186V19.993L29.1595 29.1515Z" fill="#1B3281"/>
<path fill-rule="evenodd" clip-rule="evenodd" d="M19.9927 1.66632L29.1533 10.8334L38.3183 1.66632H19.9927Z" fill="#0066B2"/>
<path fill-rule="evenodd" clip-rule="evenodd" d="M38.3196 1.66632L29.1589 10.827L38.3196 19.9919V1.66632Z" fill="#00519B"/>
<path fill-rule="evenodd" clip-rule="evenodd" d="M8.77588 31.2534L15.2735 37.7499L26.5843 26.6083L38.3192 38.2789V24.5781L26.5843 13.4L8.77588 31.2534Z" fill="#FEFEFE"/>
</svg>
