<svg width="40" height="40" viewBox="0 0 40 40" fill="none" xmlns="http://www.w3.org/2000/svg">
<path fill-rule="evenodd" clip-rule="evenodd" d="M10.5497 2.21703C9.56366 2.70939 8.82908 3.5565 8.48192 4.60227L1.88027 24.4429C1.53047 25.4853 1.61231 26.6073 2.10863 27.5977C2.60198 28.5768 3.44975 29.3133 4.49189 29.6618L26.1415 36.9304C27.1913 37.2789 28.3119 37.1993 29.2967 36.705C30.2824 36.207 31.0186 35.3645 31.3615 34.3158L37.9661 14.4811C38.6891 12.3206 37.5133 9.97632 35.3528 9.25659L13.7052 1.98999C12.6534 1.64316 11.54 1.71873 10.5497 2.21703Z" fill="#FEFEFE"/>
<path fill-rule="evenodd" clip-rule="evenodd" d="M10.9558 25.2433H12.4477V14.9367H10.9558V25.2433ZM21.1324 21.2717C19.9566 22.5838 18.4904 23.6424 16.7909 24.2988L15.8138 24.6773V15.4848L16.779 15.8587C18.4808 16.5085 19.9507 17.5675 21.1324 18.8733C21.9736 17.5196 22.496 15.9492 22.6032 14.2411C22.8705 9.83426 20.1104 5.79044 16.319 4.38299L13.1913 3.34217C11.7799 2.87192 10.2774 3.65039 9.81174 5.05784L3.19128 24.9096C2.72103 26.3227 3.51303 27.8556 4.92609 28.3202L19.9507 33.3365C21.4825 31.7076 22.4762 29.5494 22.6214 27.1421C22.754 24.9941 22.194 22.9689 21.1324 21.2717Z" fill="#198FCA"/>
<path fill-rule="evenodd" clip-rule="evenodd" d="M20.2656 20.0727C19.4268 19.0893 18.4127 18.2629 17.2418 17.6577V22.5021C18.4127 21.8956 19.4324 21.0594 20.2656 20.0727Z" fill="#E95705"/>
<path fill-rule="evenodd" clip-rule="evenodd" d="M31.2197 25.2106L29.3571 25.2158L25.5255 20.0616L29.4175 14.909L31.2962 14.9017L27.3953 20.0692L31.2197 25.2106ZM34.8723 10.581L21.0842 5.97321C22.9362 8.0004 24.0694 10.6939 24.0747 13.6437C24.0777 15.9755 23.3507 18.206 22.0854 20.0728C23.3553 21.934 24.0866 24.1628 24.0928 26.4946C24.0938 29.2798 23.0929 31.8459 21.4264 33.8328L26.6045 35.561C28.0205 36.0319 29.5154 35.2534 29.9863 33.8417L36.6101 13.9919C37.079 12.5811 36.2863 11.0496 34.8723 10.581Z" fill="#015198"/>
</svg>
