<svg width="40" height="40" viewBox="0 0 40 40" fill="none" xmlns="http://www.w3.org/2000/svg">
<path fill-rule="evenodd" clip-rule="evenodd" d="M19.0144 1.93723C9.12949 2.38493 1.47979 10.7585 1.9279 20.6438C2.37352 30.5258 10.7492 38.1755 20.6333 37.7274C30.5144 37.2797 38.1645 28.9052 37.716 19.0233C37.2833 9.41545 29.3586 1.91887 19.8392 1.91846C19.5655 1.91846 19.2906 1.92472 19.0144 1.93723Z" fill="white"/>
<path fill-rule="evenodd" clip-rule="evenodd" d="M19.0025 1.68546C9.27949 2.12357 1.6907 10.1321 1.6665 19.7624V19.8509C1.66692 20.1142 1.67318 20.3779 1.68528 20.6432C2.13882 30.6587 10.6255 38.4098 20.6435 37.9583C30.6589 37.5065 38.4138 29.0181 37.9586 19.0006C37.5188 9.26549 29.4861 1.66669 19.8386 1.66669C19.5612 1.66669 19.2824 1.67295 19.0025 1.68546ZM21.1636 35.7912C21.146 35.3814 21.7473 35.2775 21.7473 35.2775C27.1172 34.2211 25.5475 30.6979 23.6457 28.9017C22.8471 28.1444 15.3739 21.6972 15.3739 21.6972C8.24536 15.5591 8.8174 10.7692 8.8174 10.7692C9.15954 4.87108 14.3229 3.40865 18.2291 3.74745C18.6843 3.7875 18.9376 4.0658 18.8575 4.44508C18.7711 4.8619 18.1661 4.89319 18.1661 4.89319C16.9244 4.96496 15.8124 5.09347 14.968 5.66133C11.8186 7.778 12.7503 11.3805 16.9448 15.3893C17.471 15.8929 18.0334 16.4237 18.6084 16.9615C18.6084 16.9615 19.4533 17.7067 21.1281 19.301C24.3576 22.2763 26.1258 23.8806 26.1258 23.8806C31.8128 28.6175 29.8731 32.9472 27.6951 34.4527C26.039 35.6005 24.2023 36.1408 21.7932 36.2685C21.7727 36.2714 21.7502 36.2731 21.7268 36.2731C21.5057 36.2731 21.1807 36.1379 21.1636 35.7912ZM22.4932 18.3042C20.6499 17.917 20.2743 16.2418 20.2743 16.2418C20.1246 15.6551 20.0874 14.9133 20.2109 13.967C20.4634 11.9851 20.9958 11.0525 21.6041 9.51707C22.4248 7.45381 20.43 6.24674 20.7617 5.48819C21.2085 4.46053 22.6313 5.76649 24.2202 5.86079C25.59 5.93714 26.4099 5.86788 27.4726 6.01141C28.8891 6.19917 30.5781 6.67691 31.3304 7.56188C32.0209 8.36674 30.9666 9.35685 29.6961 8.73767C28.7719 8.28663 27.6053 8.56242 28.2904 9.52834C29.1115 10.4475 29.5096 10.4751 30.3478 10.6937C32.6589 11.3033 32.7086 13.5176 31.1418 14.6633C29.3619 15.9672 27.5585 15.4281 26.8342 12.8696C26.475 11.5954 25.5716 10.9449 24.65 11.3108C23.7316 11.67 24.274 13.3494 24.9721 14.9045C26.1846 17.9996 23.7287 18.3175 22.7945 18.3175C22.653 18.3175 22.5466 18.31 22.4932 18.3042ZM15.7273 35.2133C13.7237 35.0164 11.3267 34.3847 9.24215 32.5784C7.32367 30.9182 6.1337 28.6384 5.55874 26.6382C4.96626 24.587 4.72051 22.187 5.69435 22.3777C5.99476 22.437 6.51256 23.7534 7.0775 24.7155C7.65955 25.7052 8.13145 26.2518 8.57957 26.586C8.78068 26.7396 9.46537 25.2154 10.4592 24.3496C11.0375 23.8735 11.6709 23.7087 11.7723 25.1336C11.8991 26.8827 11.5829 28.9651 12.0932 28.9651C12.5717 28.9651 13.6445 28.6025 16.0106 28.4035C16.901 28.3267 17.4059 28.4949 16.5572 29.6911C16.1346 30.2861 15.5688 31.1285 14.2294 32.0886C16.2372 33.9687 18.6484 33.7463 18.6914 34.5441C18.7181 35.0047 17.8169 35.2588 16.6319 35.2588C16.344 35.2588 16.0394 35.2442 15.7273 35.2133Z" fill="#0046FF"/>
</svg>
