<svg width="40" height="40" viewBox="0 0 40 40" fill="none" xmlns="http://www.w3.org/2000/svg">
<path fill-rule="evenodd" clip-rule="evenodd" d="M36.7003 31.9356C36.7003 34.5656 34.5694 36.6978 31.9393 36.6978H8.12854C5.49938 36.6978 3.36694 34.5656 3.36694 31.9356V8.12585C3.36694 5.49593 5.49938 3.36444 8.12854 3.36444H31.9393C34.5694 3.36444 36.7003 5.49593 36.7003 8.12585V31.9356Z" fill="#FFE400"/>
<path fill-rule="evenodd" clip-rule="evenodd" d="M20.4037 24.257H18.8464V15.6754H20.3863C20.3863 15.6754 20.3799 15.6716 20.386 15.6715C20.3861 15.6728 20.3862 15.6741 20.3863 15.6754H20.4037V24.257ZM27.0355 23.6104C26.8554 22.309 26.2548 21.2114 25.2509 20.3473C25.1025 20.2196 24.9472 20.1 24.7725 19.9582C24.9168 19.8495 25.0384 19.766 25.1512 19.672C25.8679 19.0752 26.3956 18.3454 26.7406 17.4756C27.0685 16.6489 27.1508 15.7914 27.0336 14.9278C26.8897 13.8686 26.4425 12.9309 25.7115 12.1371C25.1848 11.5652 24.5707 11.1137 23.8508 10.8202C23.1574 10.5375 22.4461 10.4094 21.6796 10.4094L13.347 10.411C13.2893 10.411 13.2311 10.4081 13.1741 10.4146C12.9698 10.4377 12.8496 10.5675 12.8405 10.7725C12.8378 10.83 12.8402 10.8877 12.8402 10.9453C12.8402 16.9388 12.8401 22.9323 12.8402 28.9257C12.8402 29.0163 12.8351 29.1073 12.8419 29.1974C12.8537 29.3554 12.962 29.4724 13.1185 29.4982C13.1748 29.5076 13.2335 29.5046 13.2911 29.5046L21.9206 29.5048C22.8067 29.5054 23.6347 29.2822 24.3984 28.8438C25.4928 28.2153 26.2743 27.3143 26.7404 26.1332C27.0638 25.3134 27.1538 24.4648 27.0355 23.6104Z" fill="#1E1719"/>
</svg>
