<svg width="40" height="43" viewBox="0 0 40 43" fill="none" xmlns="http://www.w3.org/2000/svg">
<path fill-rule="evenodd" clip-rule="evenodd" d="M13.7157 24.9626C12.8683 24.9626 12.179 24.2378 12.179 23.3467C12.179 22.4555 12.8683 21.7307 13.7157 21.7307C14.5632 21.7307 15.2525 22.4555 15.2525 23.3467C15.2525 24.2378 14.5632 24.9626 13.7157 24.9626ZM13.9734 20.1741C13.3676 20.1741 12.807 20.3999 12.3949 20.8099L12.253 20.9508V17.7579H10.6392V23.2145C10.6392 25.2504 11.7965 26.5153 13.6596 26.5153C15.4814 26.5153 16.8035 25.1844 16.8035 23.3506C16.8035 21.51 15.6132 20.1741 13.9734 20.1741ZM8.06219 17.7581L4.93304 21.6341V17.7581H3.33313V26.2722H4.93304V22.4303L8.12575 26.2722H10.1824L6.65005 22.0151L10.0868 17.7581H8.06219ZM34.8682 20.3616H36.6667L34.2743 23.3168L36.6667 26.272H34.8682L32.8018 23.7197V26.272H31.1873V17.7579H32.8018V22.9139L34.8682 20.3616ZM28.1594 20.1906C27.1912 20.1906 26.5938 20.6759 26.3084 21.016V20.3918H24.7944V26.2721H26.363L26.3628 23.0697C26.3628 22.2693 26.8833 21.7101 27.5342 21.7101C28.1852 21.7101 28.7055 22.2693 28.7055 23.0697V26.2721H30.2739V22.5654C30.2739 21.1895 29.3427 20.1906 28.1594 20.1906ZM19.0904 23.3551C19.0904 24.2438 19.7711 24.9668 20.6079 24.9668C21.4446 24.9668 22.1253 24.2438 22.1253 23.3551C22.1253 22.4662 21.4446 21.7433 20.6079 21.7433C19.7711 21.7433 19.0904 22.4662 19.0904 23.3551ZM17.4885 23.3588C17.4885 21.523 18.7802 20.1906 20.5596 20.1906C22.352 20.1906 23.6529 21.523 23.6529 23.3588V26.3172H22.2032V25.4773L22.1128 25.6099C22.1067 25.6189 21.484 26.5154 20.3185 26.5154C18.6787 26.5154 17.4885 25.1878 17.4885 23.3588Z" fill="#0F0060"/>
</svg>
