<svg width="40" height="40" viewBox="0 0 40 40" fill="none" xmlns="http://www.w3.org/2000/svg">
<path fill-rule="evenodd" clip-rule="evenodd" d="M19.3772 6.02923L12.2968 2.24823L19.2815 15.6272L26.2663 2.34518L19.3772 6.02923ZM24.7362 7.09561L33.7303 3.41156V10.101L28.5635 12.4278C31.6253 14.9485 33.6346 18.7295 33.6346 22.8983C33.6346 30.4603 27.1283 36.665 19.1867 36.665C11.1494 36.665 4.73877 30.5572 4.73877 22.8983C4.73877 18.6325 6.74808 14.8515 10.0013 12.2339L4.83445 9.90712V3.21766L13.7328 6.99866L15.1681 9.61628L18.4212 15.821C14.7853 16.3057 12.0106 19.3112 12.0106 22.8983C12.0106 26.7762 15.3594 29.9755 19.4737 29.9755C23.588 29.9755 26.9369 26.8732 26.9369 22.8983C26.9369 19.2142 23.9708 16.1118 20.1435 15.821L23.2053 9.81017H23.301L24.7362 7.09561Z" fill="#FFDC00"/>
</svg>
