<svg width="40" height="40" viewBox="0 0 40 40" fill="none" xmlns="http://www.w3.org/2000/svg">
<path fill-rule="evenodd" clip-rule="evenodd" d="M24.7617 20.688L24.8003 20.6502L25.5711 20.2903L25.593 20.2727L25.6205 20.2788L25.6583 20.2377L25.6847 20.2297L25.6812 20.2082L26.1053 19.9519L26.1556 19.9277V19.9129L26.1828 19.9184L26.1947 19.8982L26.2334 19.8955L26.2317 19.8816L26.2871 19.8773L27.6679 19.1025L27.6941 19.1088L27.7331 19.0657L27.7593 19.0707L27.7847 19.0395L27.8107 19.0466L27.8341 19.0131L27.8625 19.0191L27.8729 18.9962L27.9109 18.9929V18.9813L27.9404 18.9859L27.9519 18.9647L28.0033 18.9612L28.0149 18.9415L28.0675 18.9403V18.9244L28.0904 18.9322V18.9194L28.1683 18.9098V18.8982L28.2083 18.9045V18.8912H28.2609V18.8816L28.2987 18.8846V18.873L28.3219 18.8793V18.8667L28.3987 18.8688V18.8562L28.4259 18.864V18.8501L28.4785 18.8607V18.8468L28.5309 18.8584V18.8458L28.5692 18.8519V18.8413L28.6301 18.8519V18.8413L28.6994 18.8519V18.8413L29.266 18.9244V18.935L29.4745 18.9846V18.9962L29.5355 19.0085V19.0224L29.6007 19.033V19.0455L29.6533 19.0541V19.0657L29.6921 19.0717V19.0843L29.7825 19.1138V19.1274L29.81 19.1297V19.1422L29.8487 19.1475V19.1601L29.8739 19.1674V19.1778L29.914 19.1846V19.1969L29.9389 19.2034V19.2128L30.0056 19.2397V19.2495L30.0834 19.2873V19.2999L30.1051 19.3029V19.3178L30.1842 19.3545V19.3651L30.2255 19.386L30.2378 19.4102L30.2884 19.4326L30.3166 19.4737L30.3398 19.4777L30.3577 19.5046L30.3819 19.5114L30.405 19.5515L30.5879 19.7257L30.6158 19.7313V19.7542L30.6428 19.7597L30.6531 19.7985L30.7437 19.8879V19.9091L30.7981 19.9549V19.9788L30.8508 20.0247V20.0473L30.8782 20.0645L30.8916 20.101L30.9032 20.1065V20.1287L30.9299 20.1453L30.9414 20.1969L30.9686 20.2128V20.2357L30.9941 20.2664V20.2883L31.0203 20.3085V20.3286L31.0371 20.3483L30.9908 20.3264V20.3042L30.7309 20.1591V20.1327L30.5456 20.0529V20.0403L30.4924 20.032V20.0181L30.4514 20.0098V20.0005L30.4123 19.9932V19.9788L30.36 19.9678L30.3469 19.9433L30.2945 19.933V19.9214L30.2157 19.9068V19.8955L30.1484 19.8816V19.8688L30.057 19.8544V19.8396L29.956 19.8217V19.8068L29.9258 19.8048V19.7922L29.8865 19.7859L29.8626 19.7449L29.8236 19.7386L29.8193 19.7247L29.7666 19.7048V19.6789L29.6375 19.6175V19.5945L29.4785 19.5293V19.5046L29.4121 19.4923V19.4694L29.1212 19.379V19.3555L28.7712 19.2747L28.7414 19.285L28.5332 19.2452L28.5196 19.2664L28.3987 19.2452L28.3871 19.2664L28.2463 19.2515L28.2302 19.2724L28.1811 19.2631V19.2747L28.1557 19.2724V19.285L28.1136 19.2747L27.997 19.2906V19.3168L27.8656 19.3271V19.3495L27.749 19.3651L27.6837 19.3999V19.424L27.646 19.4303L27.6311 19.4502L27.6069 19.4475L27.5795 19.4777L27.5533 19.4747V19.4978L27.5258 19.4923L27.5311 19.5165L27.4931 19.5469L27.4493 19.5376V19.5618L27.4251 19.5575L27.3609 19.6406L27.3355 19.6366V19.6628L27.3093 19.6575L27.2702 19.7363L27.244 19.7303L27.14 19.8909L27.1138 19.8879V19.9214L27.0874 19.9174L27.0527 20.0456L27.0252 20.0393L27.0126 20.1224L26.9864 20.1274V20.176L26.9612 20.1823V20.2455L26.9474 20.2422V20.2883H26.9356L26.9247 20.4052L26.8993 20.3986V20.5366L26.8721 20.5399L26.8771 20.9182L26.9053 20.933V21.0635L26.9318 21.0834L26.9356 21.1677L26.9474 21.1687V21.1939L26.9612 21.1959L26.9738 21.3191L27 21.3208V21.3843L27.0287 21.4009V21.4379L27.0431 21.44V21.4893L27.0559 21.4916L27.0675 21.5417L27.0947 21.5462L27.1116 21.6331L27.1358 21.6512V21.687L27.1506 21.69L27.1665 21.9804L27.1788 21.9827L27.1811 22.0794L27.1927 22.0814L27.1947 22.1436L27.2063 22.1453L27.2085 22.2189L27.2221 22.2199V22.2675L27.2347 22.2705V22.2947L27.2473 22.2977L27.2642 22.3737L27.2745 22.376L27.2768 22.4241L27.2894 22.4264V22.4619L27.304 22.4639V22.5012L27.3166 22.5027V22.5387L27.3294 22.541L27.343 22.6155L27.3546 22.6198V22.6417L27.3818 22.6618L27.4931 22.9099L27.5175 22.9152L27.6132 23.1116L27.6341 23.1182L27.6646 23.1466V23.1695L27.6941 23.1864V23.2118L27.715 23.2297V23.2526L27.7953 23.3274V23.3521L27.8107 23.3556L27.8771 23.4513L27.9013 23.4546L27.9444 23.5239L27.9665 23.5274L27.997 23.5694L28.06 23.6427L28.0874 23.648L28.1262 23.7029L28.1557 23.708L28.1683 23.7344L28.2083 23.752V23.7785L28.3778 23.893L28.4324 23.9762L28.445 23.9784L28.4586 24.0414L28.4977 24.0731L28.51 24.1222L28.5271 24.1257L28.5606 24.1781L28.5123 24.2224L28.4742 24.2391V24.265L28.4385 24.2799V24.3045L28.1957 24.4609V24.4851L28.1474 24.4997V24.509L28.1202 24.5063L28.1083 24.5272L28.0937 24.5226L28.0801 24.5473L28.0539 24.5408L28.0295 24.5725L28.0033 24.5682L27.9927 24.5873L27.9519 24.5924V24.606L27.9288 24.5999L27.9149 24.6229L27.8771 24.6261V24.6377H27.8235L27.8142 24.6818L27.7593 24.683L27.6586 24.749V24.7709L27.6195 24.7699V24.7923L27.5699 24.8185V24.8417L27.5049 24.8795V24.9006L27.4513 24.9183V24.9404L27.4397 24.9371L27.3901 24.989L27.3639 24.983V25.0056L27.3387 25.0129V25.0265L27.3166 25.0205L27.2642 25.0709L27.238 25.0686L27.1861 25.1182L27.1461 25.1212L27.1337 25.1447L27.1063 25.1381L27.0947 25.1593L27.0675 25.1562L27.0592 25.1771L27.0287 25.1696L27.0192 25.2096L26.993 25.2076L26.9801 25.2285L26.9318 25.2547L26.893 25.3116L26.854 25.3272V25.3514L26.8308 25.358V25.3831L26.8013 25.3914L26.8036 25.4159L26.7764 25.4209V25.4335L26.7489 25.44V25.463L26.6877 25.4987V25.5232L26.6006 25.5765L26.586 25.6113L26.5477 25.6272V25.6408L26.5215 25.6342L26.4334 25.7125L26.4072 25.7103L26.3568 25.7606L26.3304 25.7546L26.2906 25.7934L26.2632 25.7911L26.2513 25.8112L26.2123 25.8153V25.8259L26.1864 25.8238L26.1768 25.8437L26.1463 25.8387L26.138 25.8604L26.1083 25.8553L26.098 25.8782L26.0788 25.8742V25.8531L26.1735 25.8238L26.1702 25.7868L26.2085 25.7606L26.2611 25.7334V25.7206L26.2871 25.7239L26.2841 25.6891L26.2999 25.6901L26.3271 25.6848L26.4269 25.5083L26.4563 25.5136L26.5185 25.3212L26.546 25.3262L26.5576 25.2315L26.5795 25.2265V25.153L26.5931 25.1562V25.0699L26.6069 25.0721L26.6024 24.8795L26.6162 24.8817L26.5722 24.4539L26.5477 24.4473L26.5311 24.3242L26.5069 24.3179L26.488 24.2308L26.4639 24.2275L26.4377 24.1257L26.4105 24.1222L26.384 24.0195L26.3568 24.0036L26.343 23.891L26.3158 23.8742V23.8006L26.3032 23.7996V23.7765L26.2906 23.7722L26.2758 23.648L26.2483 23.644L26.2334 23.582L26.2221 23.581V23.5294L26.1947 23.5145L26.1828 23.4375L26.1539 23.4221V23.3861L26.1274 23.3692V23.343L26.101 23.3274L26.0861 23.2632L26.0748 23.261L26.0592 23.2244L26.0327 23.2181V23.1834L26.0073 23.1761L25.9685 23.0864L25.9433 23.0844V23.0562L25.9161 23.0529L25.8728 22.9595L25.8476 22.9562V22.929L25.8225 22.9255L25.7824 22.8593L25.7562 22.8553L25.754 22.8288L25.7278 22.8238L25.6877 22.7565L25.6605 22.7523V22.7281L25.5711 22.6754V22.65L25.5447 22.645V22.6208L25.4638 22.5586L25.4364 22.5525L25.4112 22.4871L25.3848 22.4841L25.3566 22.4178L25.346 22.4148L25.3155 22.338L25.2913 22.3327V22.2977L25.2652 22.2947V22.2675L25.2387 22.2642L25.1453 22.1129L25.1191 22.1066V22.0854L25.0937 22.0794V22.0559L25.0665 22.0489L25.0002 21.9804L24.998 21.9532L24.9718 21.9499V21.9247L24.9456 21.9192V21.8963L24.8801 21.8595V21.8353L24.8297 21.8152V21.791L24.7474 21.7535L24.6953 21.6936L24.6416 21.585L24.6132 21.5807L24.5479 21.4357L24.5238 21.4314V21.4095L24.4966 21.4009L24.4671 21.337L24.4407 21.3327L24.3767 21.2254L24.3502 21.2191L24.3482 21.1959L24.3228 21.1896V21.1677L24.2966 21.1612V21.137L24.2684 21.1317V21.1085L24.1641 21.0277V21.0045L24.1095 20.9708V20.9433V20.9423L24.1704 20.9237L24.1853 20.9036L24.2092 20.9058L24.2231 20.8864L24.2483 20.891L24.2619 20.8688L24.2883 20.8751L24.3019 20.8532L24.3271 20.8585L24.3366 20.8373L24.3893 20.8341L24.4029 20.8142L24.4797 20.8046L24.4774 20.7912L24.5059 20.7963V20.7824L24.5814 20.7744V20.7628L24.6195 20.7701V20.7565L24.6469 20.7628V20.7502L24.6721 20.7552L24.6869 20.7343L24.7111 20.7386L24.7373 20.7185L24.735 20.6973L24.7617 20.688ZM29.9889 25.5157L29.9595 25.5094L29.9111 25.4411L29.8849 25.4389L29.7636 25.2968L29.6893 25.2223V25.2011L29.6376 25.1561L29.6356 25.1309L29.6208 25.1266L29.5948 25.0878L29.5694 25.0813L29.5555 25.0561L29.4906 25.0319V25.0203L29.44 25.0014V24.9889L29.3863 24.9647L29.3737 24.9405L29.2992 24.9007V24.8899L29.2571 24.8743L29.2435 24.8448L29.1949 24.8236L29.1783 24.7985L29.1549 24.7924L29.1403 24.7667L29.1015 24.7468L29.0773 24.7081L29.0466 24.7008L29.0385 24.6743L29.0078 24.6705L28.9562 24.6008L28.9333 24.5975L28.827 24.4703L28.8041 24.4673V24.4547L28.765 24.4232V24.4001L28.661 24.2958L28.6578 24.2736L28.6303 24.2538L28.5883 24.1981H28.5925L28.5883 24.1739L28.6578 24.1024L28.6827 24.1077L28.7091 24.077L28.7353 24.0815L28.7502 24.0583L28.788 24.0551V24.0415L28.8134 24.0478L28.827 24.0256L28.8492 24.0279L28.866 24.0087L28.8879 24.013L28.9018 23.9908L28.9448 23.9868L28.9794 23.9448L29.0058 23.9511L29.0204 23.9276L29.0466 23.9354L29.1216 23.8647L29.1647 23.8584L29.1614 23.8352L29.2402 23.7765L29.2914 23.7498L29.3052 23.7156L29.3432 23.7007V23.6743L29.3835 23.6574V23.6332L29.4107 23.6262V23.6018L29.4359 23.5945V23.5713L29.4611 23.563L29.4747 23.5292L29.4853 23.5315L29.5001 23.4862L29.5241 23.4786L29.5399 23.4328L29.5787 23.4305L29.6145 23.3885L29.6409 23.3948L29.6674 23.3598L29.6923 23.3663L29.7061 23.3431L29.7303 23.3494L29.7829 23.2968L29.8134 23.3031L29.9016 23.2243L29.926 23.2285L29.9393 23.2066L29.9796 23.1898V23.1663L29.9922 23.1686L30.0449 23.118L30.0698 23.1235V23.0978L30.0962 23.0666L30.1443 23.0404V23.017L30.1844 22.9971V22.976L30.2257 22.9596V22.9342L30.2529 22.9279L30.2498 22.8898L30.278 22.8974L30.2763 22.8594L30.3916 22.7848V22.7606L30.4959 22.7319V22.708L30.5747 22.6851V22.6619L30.6923 22.6113V22.5881L30.7177 22.5904L30.8124 22.4768L30.8351 22.4819V22.4569L30.8618 22.4597L30.8585 22.4375L30.887 22.4421L30.9386 22.3799V22.3431L30.9786 22.3252L31.0016 22.2577L31.031 22.2643L31.0539 22.1834L31.0804 22.1885V22.1414L31.1048 22.1444V22.0981L31.132 22.1001L31.1436 22.0424L31.1552 22.0467L31.1708 21.9636L31.1834 21.9666V21.9427L31.194 21.9437V21.8964L31.2065 21.8974V21.8755L31.2191 21.8772V21.8165L31.2453 21.8087V21.7226L31.2708 21.7173L31.2688 21.609L31.2939 21.603V21.3947L31.3075 21.3977V21.3471L31.3201 21.3549L31.2907 21.1895L31.2874 20.9822L31.2625 20.9709V20.8606L31.236 20.8437L31.2327 20.7566L31.2065 20.7405V20.6798L31.194 20.6775V20.6543H31.1801V20.6027L31.1678 20.6007V20.5639L31.1506 20.5599V20.5397L31.1413 20.5367V20.4861L31.1257 20.4848L31.1131 20.4231L31.0867 20.4166V20.4085L31.0889 20.4106L31.1131 20.4166L31.1287 20.4428L31.1506 20.4473L31.1801 20.4894L31.2065 20.4927L31.2159 20.5198L31.2423 20.5219L31.2939 20.5924L31.3201 20.5989L31.4274 20.7256L31.5062 20.7858L31.5453 20.853L31.5715 20.8586L31.584 20.8951L31.6485 20.9563V20.9804L31.7147 21.0404V21.0615L31.7409 21.0802V21.1054L31.7797 21.1328V21.1577L31.8049 21.1739L31.8094 21.1988L31.8334 21.2136L31.8449 21.2517L31.8575 21.257L32.6556 22.1414L32.6818 22.1547V22.1809L32.7082 22.1981L32.7211 22.2338L32.7334 22.2371L32.9152 22.4481L32.9417 22.4559L32.9669 22.4935L32.9943 22.4997L33.0364 22.5524L33.0595 22.5587L33.1013 22.6133L33.1225 22.6186L33.2056 22.7166L33.372 22.8898L33.4234 22.9596L33.6483 23.1908L33.6619 23.216L33.7133 23.2369L33.7261 23.2633L33.7755 23.2865L33.7916 23.3117L34.299 23.811L34.3255 23.8143L34.3643 23.8828L34.3769 23.8848V23.9067L34.4033 23.9256V23.9354L34.4297 23.9531V23.9762L34.4537 23.9951L34.459 24.0173L34.4957 24.0478L34.706 24.2663L34.7292 24.2706L34.7428 24.2958L34.7685 24.3024L34.7934 24.3411L34.8198 24.3472L34.845 24.3862L34.8725 24.3925L34.9112 24.4474L34.9374 24.4494L35.0414 24.5774L35.0689 24.5819V24.5925L35.1069 24.6262V24.6491L35.2245 24.7667L35.397 24.9279V24.9405L35.422 24.9435V24.9571L35.4444 24.971L35.497 24.9954L35.5642 25.0412L35.5758 25.0687L35.6179 25.1004L35.6431 25.1065L35.6839 25.1329L35.6922 25.1624L35.7315 25.1906L35.7589 25.1959L35.7841 25.2266L35.7977 25.254L36.006 25.457L36.3076 25.7617L36.3338 25.7912L36.356 25.7935L36.3739 25.8184L37.0362 26.4329V26.4432L37.0762 26.4726L37.4676 26.9015L37.4928 26.9068L37.5454 26.9776L37.5703 26.9803L37.5832 27.0088L37.663 27.0816L37.7146 27.1402L37.7806 27.2213L37.8345 27.2916L37.8713 27.3465L37.8965 27.3863L37.9395 27.4641L37.9881 27.5326L38.0141 27.5862L38.0289 27.6124L38.069 27.6915V27.7174V27.728L38.0826 27.729L38.0951 27.7776L38.1077 27.7807V27.8089V27.8167L38.1213 27.8194V27.8449L38.1342 27.8469V27.8826L38.147 27.8837L38.1521 27.9217L38.1606 27.9227L38.1647 27.9595L38.1732 27.9615L38.2581 28.3193V28.4631L38.2719 28.4654L38.2603 28.7724L38.251 28.7701V28.8522L38.2394 28.8502V28.9091H38.2269V28.9678L38.2122 28.9658L38.215 29.0131L38.2034 29.0101V29.0572L38.1896 29.0562V29.0932L38.1762 29.0887L38.1647 29.1698L38.1521 29.1677V29.1919L38.1372 29.1897V29.2234H38.1236L38.1279 29.2456L38.1153 29.2443V29.2801L38.1017 29.277L38.0785 29.3433L38.0629 29.341V29.3654L38.0501 29.3601V29.3863L38.0375 29.3831V29.4095L38.0226 29.4052L38.0015 29.4717L37.9881 29.4704L37.9743 29.5029L37.9478 29.5092L37.9355 29.5558L37.909 29.5619V29.5838L37.8713 29.6009V29.6271L37.8345 29.6429V29.6681L37.7862 29.6933V29.7185L37.6696 29.788L37.5673 29.8797L37.5429 29.8754L37.5033 29.9142L37.4759 29.9099L37.454 29.9426L37.4233 29.9373L37.3993 29.9645L37.3757 29.9615L37.3621 29.9824L37.3245 29.988V30.0003L37.2719 30.0023L37.2581 30.0225L37.1805 30.0328L37.1679 30.0532L37.0543 30.0678V30.0794L37.0017 30.0816V30.0952L36.9617 30.0877V30.1003L36.9405 30.0952V30.1058L36.8977 30.1003V30.1111L36.8584 30.1058V30.1151L36.8219 30.1088V30.1192L36.7839 30.1129V30.1255L36.7312 30.1151V30.1275L36.6786 30.1171V30.1307L36.6166 30.1171V30.1307C36.6166 30.1307 36.2298 30.0804 36.0762 30.0429C35.9208 30.0023 35.5275 29.8552 35.5275 29.8552L35.4716 29.8376L35.4527 29.8311V29.8175L35.3867 29.7943V29.7827L35.3381 29.7638V29.75L35.296 29.7439V29.7311L35.2432 29.7112V29.6966L35.1908 29.6757L35.1779 29.6492L35.0994 29.6115V29.6009L34.7251 29.3644V29.3513L34.6738 29.3433V29.3304L34.6345 29.3224V29.3088L34.5957 29.3045V29.2916L34.5557 29.2738L33.9596 28.8635L33.9321 28.8618L33.8795 28.789L33.8523 28.7857L33.4884 28.5074V28.4936L33.4411 28.4714V28.4609L33.398 28.4548V28.4399L33.3232 28.4012V28.3916L33.296 28.3873V28.374L33.2436 28.3528L33.2275 28.3254L33.153 28.2876L33.1361 28.2622L33.1139 28.2591V28.2433L33.0751 28.2284L33.0613 28.1989L33.0364 28.1972L33.0066 28.1549L32.9847 28.1498L32.9701 28.1267L32.9459 28.1204L32.889 28.0494L32.8639 28.0468L32.4367 27.6945V27.6819L32.3579 27.6427V27.6301L32.333 27.6263V27.6147L32.3065 27.6071V27.5968L32.229 27.5608L32.2174 27.5326L32.1638 27.5137L32.1499 27.484L32.0993 27.4641L32.0751 27.42L32.0467 27.418L32.0341 27.3941L32.0069 27.3873L31.9794 27.3465C31.9794 27.3465 31.539 26.9972 31.3685 26.8408C31.2809 26.7571 31.0848 26.579 30.913 26.423L30.9128 26.4228C30.767 26.2904 30.6387 26.1739 30.6092 26.1445L30.5621 26.0992V26.073L30.4959 26.0141L30.483 25.9773L30.4579 25.9362L29.9889 25.5157ZM20.626 22.6996V22.7217L20.7312 22.7922V22.8141L20.8385 22.8816V22.9061L20.8763 22.9151V22.9255L20.8902 22.9532L20.9287 22.9952L20.9554 23.0005V23.0373L20.9836 23.0413L21.011 23.1078L21.0246 23.1098V23.134L21.0501 23.1518V23.1856L21.075 23.1919V23.2151L21.1014 23.2198L21.1309 23.2866L21.1558 23.2916V23.3138L21.1835 23.3211L21.2465 23.4304L21.2747 23.4326V23.4568L21.379 23.5366L21.382 23.5618L21.4082 23.5671V23.5913L21.4757 23.6271V23.6502L21.5021 23.6565V23.6807L21.5925 23.7343L21.6064 23.7608L21.6451 23.7703L21.6587 23.7943L21.6839 23.7996V23.8111L21.727 23.832V23.8555L21.7743 23.8658V23.89L21.8436 23.9267L22.0289 24.1529V24.1771L22.0564 24.1826L22.1979 24.3412V24.3652L22.2274 24.3684V24.3939L22.2697 24.4002V24.4264L22.2926 24.4314V24.4548L22.4644 24.5724L22.5177 24.6175V24.6293L22.5452 24.6346L22.5472 24.645L22.5724 24.6513L22.583 24.6744L22.626 24.683L22.6376 24.7112L22.6766 24.7175V24.7311L22.7283 24.753V24.7754L22.7943 24.8142V24.8374L22.824 24.8416V24.8648L22.8456 24.8701L22.8899 24.9144V24.9373L22.9141 24.9426V24.9681L22.9403 24.9711L23.0098 25.0436V25.0685L23.035 25.0721L23.2435 25.2589V25.2821L23.2856 25.2884V25.3148L23.3505 25.3486V25.3589L23.3896 25.3705V25.3821L23.442 25.402V25.4274L23.4989 25.4367V25.4609L23.5895 25.4904L23.6009 25.5158L23.6533 25.5271V25.5485L23.7185 25.5619L23.7323 25.5903L23.8016 25.5999V25.6122L23.8396 25.6211V25.6334L23.891 25.643V25.6533L23.9826 25.6737L23.9965 25.6976L24.1426 25.7271L24.1552 25.7545L24.2841 25.7754V25.787L24.3231 25.7933V25.8069L24.3896 25.8185V25.8313L24.4191 25.8376L24.4314 25.8638L24.5367 25.893V25.9175L25.0079 26.0552L25.1783 26.0854V26.0731L25.2025 26.0794V26.0668L25.4549 26.0877V26.0645L25.6883 26.0477V26.0247L25.7248 26.0258L25.7145 26.0318V26.0557L25.6493 26.0932L25.5745 26.1486V26.1708L25.5344 26.1771L25.4486 26.2572L25.4211 26.2516L25.3821 26.2917L25.3569 26.2844L25.3158 26.3264L25.2917 26.3211L25.2655 26.3506L25.239 26.3483L25.2267 26.3682L25.1909 26.3748V26.3864L25.1637 26.3811L25.1511 26.402L25.1116 26.4085V26.4191L25.0373 26.4274L25.0215 26.4506H24.9688V26.4622L24.9459 26.4579V26.4725L24.9205 26.4652V26.4788L24.8427 26.4884V26.4999L24.8071 26.4914V26.502L24.8006 26.5355L24.7734 26.5294L24.7114 26.5904L24.65 26.582V26.6062L24.5757 26.6513L24.4619 26.749L24.4314 26.745L24.3297 26.8089L24.1771 26.8807L24.1393 26.8847V26.8973L24.1131 26.8913L24.0992 26.914L24.0479 26.9162L24.0386 26.9364L24.0081 26.9341L23.9847 26.952L23.9592 26.9457V26.9583L23.933 26.9532V26.9666L23.9079 26.9605V26.9731L23.8827 26.9676V26.9804L23.8565 26.9754V26.9867L23.829 26.9837V26.992L23.7512 27.0036V27.0152L23.7124 27.0086V27.0192L23.6903 27.0152V27.0278L23.6515 27.0192V27.0298L23.6145 27.0437V27.0562L23.5757 27.0497V27.0593L23.5379 27.054V27.0646L23.3581 27.1383L23.3065 27.1864L23.28 27.1844L23.2284 27.2361L23.2015 27.2285L23.1783 27.2582L23.1541 27.2549L23.1257 27.2844L23.1005 27.2811L23.0876 27.3003L23.035 27.304L23.0214 27.3265L22.9834 27.3317V27.3433L22.931 27.3441L22.9217 27.3675L22.8418 27.3746V27.3872L22.8177 27.3824V27.395L22.7912 27.3894V27.402L22.7648 27.3987V27.4106L22.6872 27.4179V27.4315L22.6515 27.4199V27.4337L22.626 27.4315V27.4421L22.583 27.4337L22.5852 27.4476L22.5595 27.4421V27.4557L22.5208 27.4476L22.524 27.4579L22.4853 27.4506V27.4632L22.2369 27.5609L22.2128 27.5579L22.1634 27.606L22.1372 27.5999L22.1108 27.6334L22.0846 27.6271L22.0579 27.6574L22.032 27.6523L22.0224 27.6755L21.9972 27.67L21.9687 27.7017L21.9184 27.7027L21.9058 27.7259L21.8552 27.7281L21.8436 27.7483L21.7658 27.7576L21.7534 27.7777L21.7144 27.7725L21.6988 27.7941L21.277 27.8689L21.2256 27.8603V27.8712L21.172 27.8626V27.8752L21.1203 27.8659V27.8752L21.0697 27.8659V27.8782L21.0068 27.8659V27.8782L20.9425 27.8659V27.8782L20.8385 27.8603V27.8712L20.359 27.7941V27.7838L20.2064 27.7531V27.7417L20.1014 27.7206L20.0981 27.7123L20.0244 27.6977V27.6838L19.972 27.6755V27.6639L19.907 27.6513V27.6387L19.7627 27.5889V27.5775L19.7239 27.5705V27.5579L19.6335 27.5307V27.5191L19.6061 27.5136V27.501L19.5683 27.4937V27.4808L19.5429 27.4781V27.4655L19.5063 27.4579V27.4476L19.4547 27.4252V27.4126L19.4157 27.4063V27.395L19.3359 27.3569V27.3433L19.3117 27.337V27.3265L19.259 27.3063L19.2465 27.2799L19.1676 27.2411L19.154 27.2139L19.1022 27.1953V27.1804L19.0634 27.1625L19.0508 27.1371L19.0246 27.132L19.011 27.1033L18.9856 27.1003L18.9594 27.0593L18.9342 27.0562L18.9077 27.0152L18.8815 27.0109L18.8554 26.9689L18.8161 26.9502L18.7005 26.8089L18.6723 26.8059L18.5776 26.6818L18.5557 26.6755L18.4905 26.5924V26.5682L18.464 26.5526V26.541L18.4386 26.5231V26.4999L18.3998 26.4695V26.4453L18.3623 26.4158V26.3884L18.3336 26.3748L18.3212 26.3358L18.3054 26.3327V26.3096L18.2802 26.2917L18.2686 26.2572L18.2537 26.2527L18.2381 26.2013L18.2139 26.1834V26.1615L18.1865 26.132V26.1109L18.1752 26.1078V26.0827L18.1613 26.0804V26.0572L18.1487 26.0552L18.1225 25.9774H18.1097L18.0971 25.9142L18.0842 25.9109V25.8857H18.0696V25.8502L18.0553 25.8472L18.0435 25.7966H18.0288L18.0024 25.6737L17.9898 25.6714V25.6334H17.9762V25.5976L17.9624 25.5923L17.9475 25.5072L17.9362 25.5052L17.9342 25.4579L17.9216 25.4538L17.9077 25.3093L17.9342 24.3052H17.9475V24.2728L17.9593 24.2738V24.239L17.9732 24.241L18.0087 24.0917L18.0258 24.095V24.0708L18.0351 24.0761V24.0393L18.0477 24.0413L18.0613 23.9952L18.0696 23.9983V23.9638L18.0865 23.9658L18.1004 23.9184L18.113 23.9225V23.8857L18.1369 23.8774V23.8565L18.1613 23.8383V23.8134L18.1752 23.8144V23.791L18.1845 23.7933V23.7703L18.2117 23.7628L18.2233 23.7175L18.2505 23.7112V23.686L18.2746 23.6777L18.2885 23.6356L18.3119 23.6271V23.6019L18.3494 23.588V23.5618L18.3885 23.5447V23.5208L18.4514 23.4863V23.4639L18.502 23.4367V23.4115L18.5305 23.3949L18.5683 23.3893V23.3662L18.5955 23.3578L18.6176 23.3274L18.6816 23.3029V23.2813L18.709 23.2604L18.7332 23.2664L18.7723 23.2244L18.8007 23.2297L18.847 23.1793L18.8753 23.1843L18.9004 23.1529L18.9279 23.1592L18.9521 23.1287L18.9793 23.132L18.9911 23.1118L19.0415 23.1098L19.0541 23.0864L19.0928 23.0844V23.071L19.1455 23.069L19.1591 23.0466L19.1805 23.0529L19.2064 23.0327L19.2369 23.0373V23.0247L19.259 23.0307V23.0201L19.2878 23.0234L19.2981 23.0023L19.3359 23.0098V22.9962L19.3882 22.9929V22.9826L19.4283 22.9889V22.9791L19.4769 22.9761V22.9635L19.5169 22.972V22.9595L19.5429 22.9635V22.9532L19.7111 22.9486V22.9355L19.7501 22.9426V22.929L19.7891 22.9383V22.9255L19.9425 22.929L19.9574 22.9098L19.9815 22.9151L20.0047 22.8826L20.0322 22.8899L20.0561 22.8552L20.0825 22.8617L20.1085 22.829L20.1339 22.8366L20.1478 22.8141L20.1991 22.8131L20.213 22.7922L20.2359 22.7955L20.252 22.7723L20.2737 22.7784L20.2875 22.7567L20.3137 22.7628L20.3412 22.7439L20.3653 22.7479V22.7388L20.3925 22.7406V22.7303L20.4177 22.7343L20.6041 22.686L20.626 22.6996Z" fill="#ADCB53"/>
<path fill-rule="evenodd" clip-rule="evenodd" d="M8.6721 19.2747L8.6993 19.2211L8.71088 19.2221L8.72347 19.1777L8.73833 19.18L8.73531 19.1548L8.7479 19.1591V19.1213L8.76049 19.1241L8.78567 19.0581L8.79927 19.0611V19.0362L8.81312 19.0392V19.0161L8.82546 19.0191L8.82244 18.9952L8.83705 18.9962V18.973L8.85317 18.977V18.9518L8.87407 18.933V18.9088L8.90001 18.9025L8.91083 18.8561L8.94005 18.8499L8.94886 18.8038L8.97933 18.7972L8.9748 18.7753L8.98764 18.7763V18.7521L9.01484 18.7456V18.7217L9.03801 18.7151V18.6912L9.06747 18.6836L9.06244 18.6587L9.08963 18.6509V18.6272L9.12942 18.6121V18.5879L9.16745 18.5711V18.5451L9.23343 18.5114V18.4882L9.25786 18.4819V18.4693L9.28078 18.4618V18.4379L9.60085 18.0455L9.6142 18.0465L9.64669 18.0067L9.65852 18.01V17.9727L9.67237 17.974L9.67011 17.9541L9.6827 17.9561V17.9181L9.69856 17.9213L9.72148 17.8539H9.73432V17.8342L9.74692 17.836V17.8131L9.76026 17.8151V17.7909H9.76983V17.769L9.7857 17.771V17.7468L9.79728 17.7511V17.7257L9.80887 17.7287V17.7038L9.83606 17.6856V17.6605L9.86049 17.6542L9.87409 17.6091L9.89701 17.6028L9.91413 17.5577L9.93503 17.5489V17.5272L9.94964 17.528V17.5063L9.98767 17.4882L9.99724 17.4398L10.04 17.4273L10.037 17.4018L10.0758 17.3872L10.1423 17.3147V17.2895L10.1672 17.2958L10.1904 17.2548H10.203V17.2328L10.2156 17.2338L10.2559 17.1948L10.281 17.1885V17.1621L10.2916 17.1643L10.3314 17.1243L10.3556 17.1303L10.6941 16.7617L10.691 16.7405L10.7079 16.7435L10.7182 16.6962L10.7308 16.6995V16.6765L10.7447 16.6786V16.6531L10.7563 16.6554V16.6332L10.7701 16.6355V16.6103L10.7837 16.6151V16.5924H10.7953V16.566L10.8059 16.5715V16.5481L10.8215 16.5491L10.8182 16.526L10.8446 16.5048V16.4829L10.8698 16.4768L10.8834 16.4303L10.9212 16.4146L10.932 16.3693L10.9582 16.363V16.3378L10.9708 16.3401V16.3167L10.997 16.3096L11.0096 16.2746L11.0496 16.259V16.2368L11.0887 16.219L11.099 16.1746L11.1642 16.1379V16.1137L11.2254 16.0782V16.055L11.4166 15.8382L11.4269 15.8425V15.8193L11.4407 15.8226L11.4556 15.7405L11.4689 15.7448L11.4659 15.7183L11.4818 15.7206L11.4921 15.6531L11.5047 15.6554V15.6312L11.5185 15.6355V15.5995L11.5304 15.6005L11.542 15.5564H11.5543V15.5219L11.5669 15.5259L11.5944 15.4589L11.6057 15.4605V15.4365L11.6185 15.4395V15.4156L11.6321 15.4169V15.3915L11.6437 15.3967V15.3726L11.6553 15.3746V15.3517L11.6689 15.3524V15.3292L11.6802 15.3325V15.3083L11.7079 15.2895V15.2653L11.7321 15.259L11.7596 15.1905L11.7827 15.1844V15.16L11.8215 15.1454L11.8341 15.0991L11.8603 15.0918V15.0686L11.8991 15.0525V15.0286L11.9079 15.0298L11.9202 14.9951L11.9489 14.9885V14.9646L12.0013 14.9404V14.916L12.0623 14.8815V14.8573L12.1393 14.8117V14.7878L12.2894 14.5544L12.3063 14.5554L12.302 14.5322L12.3169 14.5367L12.3408 14.4322L12.3544 14.4355V14.4123L12.3672 14.4136V14.3788L12.3796 14.3819L12.3914 14.3368L12.407 14.3378V14.301L12.4153 14.303L12.44 14.2381L12.4544 14.2398V14.2179L12.468 14.2212V14.1958H12.4828L12.4788 14.1726L12.4967 14.1769L12.4911 14.1529L12.5082 14.156L12.505 14.1285L12.5206 14.1325L12.5163 14.1094L12.5299 14.1116V14.0855L12.5566 14.0686V14.0454L12.5835 14.0368L12.5964 13.9928L12.6183 13.9842L12.6309 13.9401L12.6581 13.9338V13.9097L12.6838 13.9024V13.8792L12.7097 13.8722V13.8487L12.7319 13.8414V13.814L12.7623 13.8099L12.7528 13.7729L12.7865 13.753V13.7321L12.8402 13.7059L12.8528 13.6709L12.9673 13.5143V13.4564L12.9799 13.4586V13.4231L12.9938 13.4259L12.9885 13.3904L13.0051 13.3924V13.3451L13.0154 13.3483V13.3103L13.0484 13.3166V13.2819L13.0633 13.2851L13.0608 13.2491H13.0744V13.2262L13.0872 13.2295L13.0995 13.1612L13.1134 13.163L13.1099 13.1381L13.125 13.1411V13.1053L13.1386 13.1086L13.1489 13.0623L13.1648 13.0665L13.1615 13.0401L13.1743 13.0434V13.0096L13.1889 13.0129L13.2134 12.9467H13.2267V12.9225L13.2396 12.9243L13.2363 12.9023L13.2522 12.9034L13.2751 12.8364L13.3028 12.8276V12.792L13.3267 12.7847L13.3403 12.7427L13.3632 12.7351V12.7089L13.3887 12.7047V12.6787L13.4158 12.6719V12.648L13.4405 12.6414V12.6195L13.4685 12.6102V12.5878L13.4813 12.5891L13.4906 12.5553L13.5201 12.5503V12.5259L13.5556 12.5092V12.4838L13.6198 12.4501V12.4271L13.8092 12.1516V12.1179H13.8218V12.0831L13.8324 12.0864V12.036L13.8482 12.0381L13.845 12.0169L13.8588 12.0197V11.9834L13.8722 11.9857V11.9623L13.8835 11.9633V11.9255L13.8963 11.9308V11.9053L13.9112 11.9096V11.8729L13.9205 11.8751L13.9334 11.8298L13.9465 11.8341V11.8099H13.9593V11.7741L13.9855 11.7678V11.7341L13.9973 11.7361V11.7122L14.0099 11.7132L14.0079 11.6898L14.0376 11.6827L14.0341 11.6586L14.0603 11.6407V11.6152L14.0729 11.6175V11.5941L14.0857 11.5986V11.5732L14.1119 11.5669L14.1243 11.5218L14.1507 11.5163V11.4913L14.1741 11.483V11.4606L14.2031 11.4523L14.199 11.4284L14.2255 11.4216V11.3977L14.2517 11.3901V11.3662L14.2915 11.3483V11.3281L14.3262 11.308V11.2848L14.4924 11.0526L14.5058 11.0579V11.0222L14.5196 11.0242V10.9874L14.5289 10.9907V10.9552L14.5418 10.9559V10.9119L14.5544 10.9129V10.8877L14.5682 10.8885L14.5944 10.789L14.606 10.79V10.7666L14.6194 10.7688L14.6173 10.7331L14.6299 10.7363L14.6423 10.692L14.6551 10.6933L14.6687 10.6384L14.6813 10.6396L14.7047 10.5722L14.7173 10.5732V10.549L14.7327 10.5533L14.7312 10.5311L14.7465 10.5324L14.7445 10.5089L14.7561 10.5099V10.4868L14.7835 10.4669V10.4427L14.8077 10.4364L14.8191 10.3903L14.8445 10.385L14.8581 10.34L14.8823 10.3294L14.8971 10.2853L14.9346 10.2705L14.9329 10.246L14.9581 10.2387V10.2145L14.9843 10.2085L14.9958 10.1735L15.0349 10.1589V10.1337L15.0631 10.1277L15.0598 10.1146L15.0852 10.1095V10.0844L15.1369 10.0579V10.0357L15.4783 9.57515V9.55123L15.4912 9.55525V9.53133L15.5186 9.52252V9.50061L15.5438 9.48046V9.45654L15.5541 9.45855V9.43639L15.5806 9.42909L15.5929 9.38275L15.6058 9.38552L15.6194 9.35354L15.6436 9.34372L15.6571 9.29889L15.6942 9.28302V9.26011L15.7194 9.25255V9.2251L15.7584 9.2115V9.18733L15.8077 9.1634V9.1357L15.8601 9.11052V9.08962L15.977 9.01508L15.9737 8.99065L16.0032 8.98435L16.0253 8.95187L16.0528 8.95816L16.1568 8.86977L16.182 8.8738L16.219 8.83401L16.2439 8.8393L16.2953 8.78868L16.3185 8.79296L16.3459 8.7635L16.3723 8.76652L16.3882 8.74536L16.4227 8.74159V8.72774L16.4482 8.73504L16.4618 8.71414L16.4889 8.71917L16.5018 8.69626L16.5416 8.69021V8.67838L16.6184 8.67007L16.628 8.64992L16.6552 8.6542L16.6793 8.63305L16.7068 8.63834V8.62801L16.732 8.63103V8.62172L16.7604 8.62474L16.772 8.60258L16.8068 8.60988V8.59829L16.8594 8.59427V8.5847L16.8982 8.59124V8.57941L16.9508 8.57639V8.56606L16.9896 8.5711V8.56052L17.0158 8.56606V8.55448L17.0548 8.56052V8.5502L17.077 8.55448V8.53962L17.2986 8.50084L17.321 8.50587L17.3346 8.48195L17.387 8.48069L17.3996 8.45878L17.4522 8.45651V8.44392L17.4776 8.44921V8.43788L17.5524 8.42705V8.41773L17.5912 8.4205V8.41118L17.6449 8.40816V8.39759L17.6824 8.40489V8.39129L17.7101 8.39759V8.38399L17.7836 8.38827L17.7864 8.37668L17.8237 8.38273V8.36913L17.8624 8.37769V8.36711L17.9012 8.37341V8.36082L17.9528 8.36913V8.35855L18.0045 8.36711V8.35754L18.0692 8.36711V8.35754L19.0894 8.59427V8.60711L19.1294 8.61416V8.62474L19.1674 8.63103V8.64362L19.2062 8.65193V8.66352L19.2463 8.67007V8.68241L19.2727 8.68795V8.69827L19.3115 8.70432V8.71917L19.3629 8.73932V8.7509L19.4016 8.7572V8.77231L19.4797 8.80983V8.82016L19.5313 8.84106L19.5449 8.8675L19.5976 8.88992L19.6101 8.91485L19.6363 8.92039L19.6499 8.94658L19.6751 8.95187L19.689 8.9778L19.7131 8.98335L19.7265 9.00853L19.7529 9.01281L19.7678 9.04001L19.7927 9.04429L19.831 9.09894L19.8582 9.10422L19.9086 9.17272L19.9363 9.17801V9.18733L19.9622 9.20697V9.23039L20.1705 9.47014L20.2085 9.50287V9.52478L20.2516 9.55651V9.57943L20.2732 9.59429L20.2873 9.6366H20.3022V9.66153L20.3261 9.67739L20.343 9.71517L20.3523 9.71945V9.74237L20.3818 9.77208V9.79399L20.3956 9.795V9.82018L20.4082 9.82471V9.84738H20.4205V9.87181L20.4334 9.8771V9.90001L20.4419 9.90152L20.4722 9.97808L20.4848 9.98236V10.0148L20.4996 10.0191V10.0423L20.5122 10.0456V10.0811L20.524 10.0833V10.1095H20.5407V10.145L20.5502 10.1486V10.1828L20.5658 10.1851L20.5805 10.2715L20.5923 10.2725L20.7268 10.6762L20.7361 10.6817L20.7542 10.7298L20.7656 10.7331L20.7794 10.8069L20.7933 10.8086V10.833L20.8058 10.8341L20.8479 10.997L20.8562 10.999V11.0368L20.8741 11.0378V11.0748L20.8867 11.0758V11.1209L20.8993 11.1264L20.9255 11.308V12.2947L20.9015 12.4566L20.89 12.4533V12.4901L20.8761 12.4883V12.5238L20.7656 13.1431L20.756 13.1411L20.7605 13.2851H20.7424L20.7467 13.3891L20.7331 13.3871V13.4574L20.7205 13.4564V13.5259L20.7054 13.5249V13.5838L20.694 13.5818V13.6269H20.6857L20.547 14.0663L20.5354 14.0625L20.5218 14.1094L20.5092 14.1064V14.1421L20.4956 14.1388L20.4827 14.1839L20.4702 14.1809V14.2053L20.4566 14.2018L20.4608 14.2381L20.4334 14.2461V14.2693L20.4082 14.2872L20.2672 14.5954L20.2579 14.6259L20.245 14.5954L20.2062 14.5647L20.1926 14.5123L20.1539 14.4846V14.4597L20.1274 14.4428V14.4166L20.0886 14.3861L20.0592 14.3453L20.0466 14.3421V14.3189L19.9947 14.2738L19.9285 14.1769L19.9035 14.1726L19.8897 14.1325H19.8758V14.096L19.8612 14.0915V14.0547L19.8486 14.054V14.017L19.833 14.0149V13.9782L19.8212 13.9762V13.9412L19.8088 13.9401V13.9024L19.795 13.9011L19.7698 13.8215H19.7529V13.7971L19.7436 13.7938V13.7712L19.7265 13.7679V13.7447L19.7131 13.7414V13.7163L19.7016 13.7153V13.6911L19.6751 13.6626V13.6374L19.6499 13.6216L19.6237 13.545L19.5814 13.5133V13.4871L19.5291 13.444L19.5167 13.405L19.489 13.3871V13.3629L19.4492 13.3322V13.3083L19.4115 13.2778V13.2537L19.3175 13.163L19.3039 13.1262L19.2787 13.1202V13.097L19.2261 13.0623L19.1609 12.9779L19.1314 12.9731V12.9625L19.0654 12.9117V12.8898L19.0307 12.8678V12.8583L18.9886 12.8404L18.976 12.8119L18.897 12.7749L18.8836 12.7457L18.8446 12.7291V12.7162L18.8204 12.713L18.7897 12.6825L18.7655 12.6787V12.6656L18.7413 12.6606L18.7247 12.6344L18.7003 12.6321V12.6195L18.6721 12.6143L18.6456 12.5848L18.6194 12.5795L18.6069 12.5536L18.49 12.4944V12.4828L18.4638 12.4785V12.4659L18.386 12.4407L18.084 12.2997L17.9413 12.2599V12.2504L17.523 12.1589L16.7413 12.1715L16.6992 12.1635V12.1748L16.6247 12.1874V12.1957L16.5733 12.201L16.5595 12.2199L16.5345 12.2159V12.2274L16.5081 12.2232V12.2368L16.4816 12.2312L16.4552 12.2504L16.4303 12.2443L16.4164 12.2672L16.3396 12.2778L16.3124 12.3073L16.2588 12.3116L16.2505 12.3314L16.2074 12.3377V12.3471L16.1694 12.3536L16.1724 12.3765L16.1031 12.402V12.4123L16.081 12.408L16.016 12.4692L15.9644 12.4828V12.5092L15.9256 12.5113V12.5342L15.8989 12.542V12.5553L15.8727 12.5503L15.8077 12.608V12.6344L15.7982 12.6321L15.773 12.6765L15.7458 12.6699L15.7329 12.7026L15.7194 12.7014L15.707 12.7351L15.6783 12.7427L15.6677 12.7875L15.632 12.8046L15.6028 12.8678L15.5751 12.8784L15.5806 12.9034L15.5541 12.9225V12.9467H15.5416V12.9696L15.5282 12.9676V12.9897L15.5154 12.9855V13.0129L15.5028 13.0096V13.0328L15.4879 13.0298L15.4617 13.097H15.4491L15.323 13.468L15.3028 13.7037L15.2875 13.7004L15.2809 13.9762H15.2902L15.3051 14.2212L15.3197 14.2242L15.3356 14.3703L15.3459 14.3725L15.3492 14.4199L15.3618 14.4216V14.4692L15.3733 14.4735L15.3776 14.5196L15.3882 14.5229L15.3925 14.5584L15.4038 14.5629V14.5984L15.4164 14.6017V14.6375H15.428V14.675L15.4438 14.6773V14.7143L15.4554 14.7153V14.7523L15.469 14.7563V14.7908L15.4816 14.7931L15.5121 14.8709L15.5237 14.8722V14.8961H15.5343L15.5363 14.9213L15.5509 14.9256V14.9497L15.5637 14.9507V14.9772L15.5751 14.9792V15.0011L15.6028 15.0316V15.0548L15.632 15.0724L15.6571 15.1482L15.6942 15.1789L15.7098 15.2303L15.7372 15.2484L15.7488 15.2862L15.7614 15.2882L15.776 15.3272L15.8004 15.3325V15.3534L15.8392 15.3862V15.4091L15.8687 15.4272V15.4524L15.9075 15.4839V15.4965L15.9316 15.4987L15.9611 15.529L15.9737 15.566L16.0253 15.6121V15.6493L16.0389 15.6531V15.6868L16.0528 15.6911L16.0558 15.7246L16.0684 15.7292V15.7647L16.081 15.7667V15.7909L16.0938 15.7931L16.1072 15.8677L16.121 15.8707L16.1505 15.9477L16.1631 15.9498V15.9742L16.1759 15.977V16.0004L16.184 16.0014V16.0268L16.2009 16.0306V16.0518L16.2283 16.0835V16.1064L16.2525 16.1213L16.2797 16.2001L16.3185 16.2328L16.3343 16.2809L16.3605 16.298L16.3723 16.3378L16.426 16.3819V16.4083L16.4925 16.468V16.4902L16.5859 16.5808L16.5985 16.6174L16.6247 16.6239L16.6645 16.7153L16.6899 16.8279L16.7068 16.8299V16.8543L16.7181 16.8574V16.8931L16.732 16.8941L16.7604 16.9697L16.772 16.974V16.9971L16.7846 17.0004V17.0253L16.7982 17.0286V17.0518L16.8095 17.054V17.0896L16.837 17.1074L16.8528 17.1568L16.8803 17.1737L16.9042 17.2505L16.9307 17.2671V17.2925L16.9571 17.3091L16.9727 17.3598L16.9961 17.3756V17.4008L17.0485 17.4439V17.4703L17.1042 17.5144V17.5406L17.1432 17.5723L17.1591 17.5965L17.1853 17.6018V17.6144L17.2074 17.6322V17.6564L17.2495 17.6733L17.2641 17.7131L17.2883 17.7174L17.3021 17.7448L17.3145 17.7458V17.771L17.3409 17.7891L17.3535 17.8607L17.3691 17.8654V17.8896L17.384 17.8919V17.9266L17.3955 17.9287L17.4227 18.0067L17.4343 18.01V18.0339L17.4482 18.0362V18.0614L17.4615 18.0624V18.0853L17.4754 18.0866V18.1127L17.488 18.114V18.1402L17.5131 18.1684L17.5152 18.1926L17.5439 18.2105L17.5658 18.2873L17.6078 18.3167L17.6207 18.3558H17.6343V18.3797L17.6731 18.4134V18.4379L17.728 18.4829V18.5071L17.7793 18.5514V18.5776L17.8728 18.669L17.8843 18.7058L17.9108 18.7078V18.7333L17.9496 18.7521V18.7637L18.0178 18.8267V18.8499L18.0433 18.8655V18.8889L18.0569 18.8912V18.9173L18.0692 18.9194V18.9549L18.084 18.9581L18.1221 19.0551H18.1158L18.1065 19.1226L18.0939 19.1213V19.1453L18.08 19.1422V19.1777L18.0664 19.175V19.2127L18.0551 19.2105V19.2336L18.0433 19.2296V19.2664L18.0284 19.2631L18.0178 19.3084L18.0045 19.3042V19.3419L17.9929 19.3399L17.9652 19.4061L17.9528 19.4031V19.4293L17.9433 19.424V19.4598L17.9183 19.4691V19.4913L17.9045 19.4895V19.526L17.8783 19.5321V19.5562L17.8665 19.5532V19.5754L17.8423 19.5975V19.6197L17.8161 19.6268L17.7909 19.693L17.7642 19.7028V19.7247L17.728 19.7416L17.7164 19.7859L17.6773 19.8045V19.8277L17.6509 19.8343L17.6373 19.8688L17.6237 19.8647V19.8897L17.5849 19.9068V19.9307L17.523 19.9889L17.3774 20.1841L17.3565 20.2213L17.3442 20.2191V20.2526L17.3323 20.2485V20.2969L17.3185 20.2959V20.3324L17.3084 20.3286L17.2883 20.3618L17.2757 20.3578V20.3956L17.2641 20.3923V20.4271L17.2495 20.4251V20.4482L17.2369 20.446V20.483L17.224 20.4787V20.5041L17.2115 20.4996L17.1777 20.5648L17.1684 20.5638L17.1525 20.6102L17.1432 20.6049V20.629L17.1296 20.627V20.6651L17.1168 20.6628L17.0908 20.6711L17.0979 20.6734L17.1012 20.6973L17.083 20.6945L17.0621 20.7615L17.0359 20.7678L17.0095 20.835L16.9823 20.8436L16.9601 20.9058L16.9349 20.9181V20.9373L16.9065 20.9446V20.9708L16.8826 20.9773V21.0012H16.8677L16.8549 21.034L16.8299 21.0403V21.0614L16.7932 21.0801V21.1055L16.7685 21.1108V21.135L16.7413 21.1435L16.7657 21.1579L16.7352 21.1632V21.1896L16.6866 21.2717V21.2956L16.5985 21.347V21.3745L16.5471 21.3979L16.2797 21.7416L16.2671 21.7396L16.2525 21.7847L16.2439 21.7824V21.8081L16.2283 21.8051V21.8393L16.219 21.8373L16.1915 21.9043L16.1779 21.9036V21.9245L16.1664 21.9224V21.9476L16.1525 21.9439L16.1568 21.9678L16.1429 21.9665V21.9897L16.1167 22.0068V22.0317L16.0906 22.0401V22.0738L16.0777 22.0708L16.0641 22.1065L16.0389 22.1108L16.0253 22.1582L16.0032 22.1662V22.1894L15.9886 22.1866V22.2118L15.9644 22.2189V22.2423L15.9256 22.2579L15.9115 22.3042L15.8727 22.3201V22.344L15.837 22.3624V22.3853L15.812 22.3916V22.4148L15.7584 22.442V22.4639L15.6942 22.5012V22.5251L15.5028 22.7605L15.4879 22.7595V22.8069L15.4756 22.8026V22.8288L15.4617 22.8265L15.4164 22.9255L15.4038 22.9212L15.3925 22.9804L15.3776 22.9781V23.0005L15.3683 22.996V23.0328L15.3557 23.0308L15.3283 23.098L15.3167 23.095V23.1181L15.3028 23.1159V23.1401L15.2902 23.139V23.1738L15.264 23.1834V23.2159L15.2416 23.2244V23.2483L15.2283 23.2443V23.2685L15.2144 23.2665V23.2914L15.2031 23.2884V23.3116L15.1769 23.3314V23.3556L15.1522 23.3629L15.1399 23.4072L15.1147 23.4135L15.1009 23.4609L15.0631 23.477L15.0482 23.5206L15.015 23.5367L15.0014 23.5714L14.9749 23.581L14.9603 23.6248L14.921 23.6397V23.6651L14.8601 23.7006V23.7238L14.7949 23.7575V23.7837L14.5806 24.0278L14.5682 24.0613L14.5544 24.0582V24.1076L14.5418 24.1033L14.5289 24.1486L14.5196 24.1454L14.5058 24.2161L14.4924 24.2136L14.4806 24.2728L14.467 24.2685L14.4547 24.3116L14.4408 24.3093V24.3347L14.4262 24.3317V24.3685L14.4144 24.3652L14.3917 24.4335L14.3789 24.4314V24.4546L14.366 24.4536L14.3388 24.5166L14.3124 24.5226V24.5501L14.2915 24.5682V24.5904L14.2781 24.5873V24.6133L14.2653 24.6123V24.6344L14.2424 24.6427L14.2285 24.6868L14.2031 24.6944V24.7173L14.1741 24.7251V24.749L14.1507 24.7543V24.7777L14.1243 24.787V24.8097L14.0991 24.8175V24.8414L14.0603 24.857L14.0626 24.8817L14.0376 24.8888V24.9145L13.9855 24.9404V24.9636L13.9205 24.9991V25.0202L13.8722 25.0489V25.0623L13.845 25.0686L13.6229 25.3463L13.6105 25.3673L13.5841 25.4345L13.5727 25.4335L13.5624 25.4788L13.5496 25.4768V25.5093L13.5357 25.5083V25.5337L13.5236 25.5304V25.5662L13.5088 25.5652L13.4645 25.6271L13.4516 25.6229V25.6491L13.4405 25.646V25.6805L13.4158 25.6891V25.7123L13.3887 25.7301V25.7553L13.3771 25.7543V25.7752L13.3632 25.7732V25.7964L13.3383 25.8173V25.8404L13.3144 25.8472L13.2995 25.8921L13.2751 25.9006V25.9235L13.2501 25.9311V25.9533L13.2237 25.9603L13.2111 26.0077L13.1701 26.0248L13.1615 26.0686L13.1227 26.0855L13.0567 26.157V26.1812L13.0356 26.1749L13.0086 26.2189L12.9958 26.2169V26.2378L12.9701 26.2464V26.2587L12.9427 26.2653V26.2915L12.8057 26.3839V26.4053L12.7782 26.4126L12.716 26.4725L12.6898 26.4693L12.6729 26.4884L12.266 26.8669L12.2536 26.8626L12.2577 26.8858L12.2443 26.8848V26.9069L12.2189 26.9279V26.9518L12.1917 26.9583L12.1781 27.0034L12.1539 27.011L12.1393 27.056L12.1013 27.0719L12.0917 27.1172L12.0529 27.1351L12.0401 27.1804L12.0036 27.195V27.2192L11.9645 27.2379V27.2603L11.9117 27.2855L11.9023 27.32L11.8877 27.3177V27.3411L11.8626 27.3348L11.6057 27.5756L11.5797 27.5695L11.5669 27.5889L11.4659 27.6428V27.667L11.4533 27.664L11.4009 27.6901V27.7027L11.3788 27.6974V27.7196L11.3241 27.7355V27.7481L11.3002 27.7418L11.2874 27.7629L11.2735 27.7617L11.2599 27.7838L11.0033 28.0329L10.9811 28.0404L10.9665 28.0855L10.9424 28.0901V28.1173L10.9149 28.1235V28.1475L10.89 28.154V28.1772L10.8666 28.1865V28.2077L10.8401 28.216V28.2401L10.8013 28.2548V28.2812L10.7762 28.2875V28.3107L10.7532 28.3157V28.3285L10.7268 28.3379V28.36L10.6754 28.3875V28.4116L10.587 28.4653V28.4882L10.4966 28.5441L10.4828 28.5768L10.4609 28.5736L10.448 28.6061L10.4082 28.6124L10.2916 28.6839L9.95896 29.013L9.91086 29.0772V29.1004L9.88366 29.1075L9.87208 29.153L9.84563 29.1603L9.8479 29.1845L9.82146 29.1918L9.79728 29.2233V29.2455L9.76983 29.2528L9.75094 29.255L9.72475 29.2601V29.2832L9.69856 29.2915V29.3147L9.65852 29.3336L9.59632 29.4044V29.4273L9.57214 29.421L9.55754 29.4557L9.51976 29.4716V29.4968L9.45454 29.5323L9.21253 29.7134V29.7353L9.19062 29.7544L9.1609 29.7501L9.13799 29.7809L9.00754 29.8405L9.01182 29.8627L8.97278 29.8687L8.89396 29.9015L8.86752 29.9319L8.84259 29.9279L8.80431 29.9448L8.79121 29.9667L8.78341 29.9836L8.77409 30.0055L8.68368 30.0256V30.0498L8.63432 30.0521V30.0637L8.60788 30.0581L8.59529 30.0793L8.56683 30.074V30.0878L8.54266 30.0803L8.51647 30.0886L7.73503 30.5978L7.71312 30.5923L7.67006 30.6343L7.64815 30.6293V30.6388L7.60912 30.6587L7.59552 30.6786L7.56807 30.6733L7.55951 30.6975L7.53004 30.6892L7.5036 30.7207L7.47867 30.7167L7.45449 30.7471L7.39959 30.7491L7.37768 30.7809L7.35149 30.7773L7.34067 30.7965L7.28602 30.7998L7.27217 30.8207L7.22407 30.8237L7.21148 30.8436L7.18428 30.8396L7.15884 30.8617L7.13391 30.8542V30.8657L7.10747 30.8617L7.09463 30.8839L7.04099 30.8856L7.04527 30.8975L7.01908 30.8932V30.9025L6.94126 30.9141V30.9287L6.90248 30.9171V30.931L6.87604 30.9287V30.9375L6.80023 30.9468V30.9594L6.72368 30.9551V30.9677L6.69522 30.9627V30.9763L6.57938 30.9786V30.9879L6.5542 30.9846V30.9962L6.50509 30.9879V30.9972L6.46605 30.9909V31.0048L6.42702 30.9962V31.01L6.38723 31.0035V31.0131L6.33863 31.0048L6.12105 31.0224L5.9916 31.011V31.0224L5.21672 30.9141V30.9005L4.94222 30.8396L4.4237 30.6492V30.6356L4.25573 30.5703V30.559L4.23256 30.5535V30.5399L4.19353 30.5346V30.522L4.11344 30.4958V30.4842L4.08625 30.4797V30.4694L4.04746 30.4588V30.4485L3.99785 30.426V30.4157L3.97292 30.4104V30.3978L3.93288 30.3918V30.3812L3.8805 30.3568V30.3452L3.85607 30.3412V30.3316L3.81502 30.322L3.80344 30.2961L3.77297 30.2928V30.2792L3.75081 30.2749V30.2621L3.72361 30.2591V30.2455L3.69843 30.2402L3.67224 30.2137L3.6468 30.2075L3.63421 30.1823L3.55539 30.1422L3.54154 30.1173L3.49016 30.0974L3.46473 30.0564L3.43854 30.0508L3.42166 30.0249L3.39875 30.0193L3.39547 30.0065L3.35971 29.9891L3.34712 29.9617L3.32093 29.9574L3.2955 29.9173L3.26905 29.9121L3.25646 29.8869L3.22851 29.8806L3.20282 29.8415L3.17789 29.8375L3.12526 29.767L3.10007 29.7637L3.03359 29.6796L3.00765 29.6746L2.83918 29.4779L2.73517 29.3739V29.3497L2.64174 29.2601V29.2379L2.59188 29.1918V29.1697L2.5405 29.1221L2.53648 29.1004L2.50978 29.0823V29.0594L2.47226 29.0286V29.0057L2.4438 28.9886L2.43121 28.9511L2.41963 28.9478V28.9236L2.39218 28.9067V28.8848L2.36699 28.8634V28.8425L2.34408 28.8246L2.31562 28.7481L2.28817 28.7335L2.26299 28.6577L2.23554 28.6398L2.22093 28.5915L2.20834 28.5882V28.5643L2.19575 28.561V28.5376L2.18114 28.5355V28.5114L2.17157 28.5094L2.16729 28.4839L2.15571 28.4811V28.4474L2.12851 28.4303V28.397L2.11592 28.3915L2.10307 28.3434L2.09023 28.3421V28.3044H2.07688L2.06429 28.2527L2.05145 28.2497L2.03558 28.1772L2.02098 28.1727V28.1497L2.00838 28.1475V28.0994L1.99579 28.0961V28.0739L1.98522 28.0719V28.0256L1.9696 28.0216V27.9845L1.95701 27.9823V27.9458L1.94417 27.9447L1.92755 27.8594L1.91924 27.8574L1.90337 27.7481L1.88851 27.7461V27.6974L1.87894 27.6954V27.6451H1.86333V27.5756L1.84973 27.5713L1.83588 27.4018L1.82228 27.3988L1.78979 26.9425L1.80365 26.9457L1.82228 26.5093L1.83588 26.5126V26.4398L1.84973 26.4431V26.3716L1.86333 26.3746L1.87189 26.2686L1.88549 26.2718L1.88247 26.2129L1.89708 26.2152L1.89506 26.1686H1.90967L1.92226 26.0877L1.93384 26.093V26.0558L1.94643 26.0573V26.0203L1.96028 26.0248V25.9772H1.97262L1.9696 25.954L1.98522 25.9563L2.00838 25.853L2.02098 25.8553L2.03558 25.8112L2.04742 25.8153L2.058 25.7427L2.07386 25.7493L2.10005 25.6805L2.11365 25.6848V25.6596L2.12196 25.6627L2.13455 25.6062L2.16099 25.5974L2.17333 25.543L2.20204 25.5337L2.19801 25.5093L2.2242 25.4924V25.4652L2.23554 25.4695V25.4461L2.24939 25.4483V25.4242L2.27256 25.4196L2.30303 25.3484L2.31134 25.3514L2.32393 25.3192L2.35012 25.3136V25.2884L2.37757 25.2819V25.259L2.41635 25.2411L2.42894 25.1937L2.46798 25.1824V25.156L2.50374 25.1391V25.1149L2.56569 25.0804V25.056L2.63016 25.0195V24.9973L2.67926 24.9709V24.9447L2.76136 24.9145V24.8898L2.84875 24.8361L2.86235 24.8142L2.88753 24.8175L2.91498 24.7994L2.9117 24.7754L3.03989 24.7132V24.6923L3.14213 24.6513L3.15371 24.6301L3.18091 24.6344L3.20735 24.6037L3.23229 24.6113L3.25873 24.5775L3.28492 24.5818L3.2955 24.5619L3.33352 24.5556V24.5453L3.35971 24.5501L3.37356 24.5269L3.39875 24.5347L3.41235 24.5125L3.43854 24.5166L3.76869 24.2917L3.96033 24.0917H3.97594L4.06308 24.0036L4.07567 24.0046V23.9812L4.12604 23.9434L4.16431 23.9391L4.25573 23.8616L4.62693 23.5954V23.5732L4.64808 23.543L4.67629 23.5238V23.4987L4.68888 23.4997V23.477L4.71406 23.4702V23.4483L4.7405 23.4261L4.73723 23.404L4.76241 23.3977V23.3725L4.78961 23.3662V23.342L4.8153 23.3116L4.84149 23.303L4.90545 23.2337L4.98 23.1519V23.1287L5.00719 23.1317L5.07569 23.098L5.08526 23.0993V23.0771L5.13462 23.0486V23.0371L5.16006 23.0308V23.0086L5.23863 22.9605L5.38796 22.8016L5.4134 22.8026L5.49348 22.7341L5.51866 22.7406L5.54057 22.6722L5.56676 22.6784L5.6194 22.6271L5.64559 22.6324L5.65818 22.6112L5.68462 22.6132L5.7088 22.5828L5.81708 22.5082L5.84151 22.4903L5.85713 22.4818L5.96113 22.3715L5.97045 22.3251L5.98304 22.3271L5.99689 22.2947L6.02233 22.2884V22.2642L6.0465 22.2579V22.2337L6.10216 22.2053L6.11148 22.1602L6.1359 22.1539L6.14925 22.1222L6.21548 22.0854V22.0622L6.27768 22.0265V22.0023L6.40385 21.9192L6.41644 21.8867L6.90525 21.383L6.93194 21.3767L6.95713 21.3105L6.98458 21.3029L7.00875 21.2337L7.01908 21.237L7.03268 21.2032L7.05912 21.1972L7.0707 21.1516L7.10948 21.135L7.12208 21.0906L7.15884 21.073V21.0488L7.19788 21.034V21.0078L7.22407 21.0012V20.9773L7.28929 20.9423L7.28602 20.9192L7.35149 20.8826V20.8605L7.90452 20.076L7.92038 20.0508L7.94657 20.0455L7.96042 19.9959L7.98636 19.9932L7.9992 19.9446L8.02539 19.9393V19.9141L8.05159 19.9068L8.04831 19.8824L8.07375 19.8773V19.8521L8.09994 19.8458V19.8237L8.13696 19.8045V19.7836L8.17675 19.7635L8.17473 19.7416L8.24096 19.7078V19.6804L8.30392 19.6479V19.624L8.35756 19.5975L8.35454 19.5724L8.38325 19.5532L8.40717 19.5598" fill="#00B0A9"/>
<path fill-rule="evenodd" clip-rule="evenodd" d="M18.1366 19.0022L18.1747 18.8654L18.1978 18.871L18.2376 18.7123L18.2618 18.7007L18.2744 18.6703L18.2882 18.6713L18.3018 18.6385L18.327 18.6403L18.3799 18.5562L18.4061 18.5617L18.4544 18.4617L18.4806 18.467L18.532 18.3557L18.5585 18.361L18.6111 18.2734V18.2369L18.6373 18.2326L18.6343 18.1971L18.6582 18.1885L18.672 18.1296L18.6859 18.1349V18.1094L18.7118 18.1024L18.7247 18.0316L18.7506 18.0369L18.7634 17.9561L18.7866 17.9478L18.8005 17.8538L18.8256 17.8468L18.8382 17.7521L18.8657 17.7458V17.6856L18.875 17.6889V17.6418L18.9045 17.6322L18.9138 17.4902L18.94 17.4829L18.9362 17.3872L18.9488 17.3892V17.3534L18.9634 17.3567L18.976 17.2998L18.9886 17.3021L19.0148 17.2935L19.0274 17.2368L19.0654 17.2328L19.0631 17.1978L19.0893 17.2001L19.1052 17.1419L19.1452 17.1381L19.1407 17.1001L19.1674 17.1074L19.1936 17.0286L19.219 17.0331L19.2346 16.9634L19.2588 16.9686L19.3482 16.7679L19.3721 16.7727L19.386 16.7037L19.4114 16.7077L19.425 16.6267L19.4492 16.6332L19.4618 16.5259L19.4857 16.532L19.5247 16.3693L19.5383 16.3713L19.5509 16.2524L19.5751 16.2482L19.5849 16.0822L19.6131 16.0749V16.0268H19.627L19.6627 15.951L19.6889 15.956L19.7264 15.9276L19.7927 15.7954L19.8151 15.8001L19.8677 15.6868L19.8939 15.6929L20.2472 14.6921L20.2611 14.6933L20.2714 14.6679H20.2838V14.6933L20.2976 14.6944V14.7205L20.3102 14.7215V14.7447L20.3218 14.747V14.7709L20.3364 14.7742V14.7984L20.349 14.8004V14.8256L20.3618 14.8278V14.8507L20.3747 14.852L20.4019 14.9275L20.4157 14.9318L20.6519 15.3418V15.3693L20.7033 15.4133V15.4365L20.7423 15.466V15.4901L20.7816 15.5219V15.5481L20.8076 15.5629V15.5868L20.8353 15.6037L20.8479 15.6427H20.8602V15.6679L20.8899 15.6941V15.7183L20.9015 15.7206V15.7478L20.9284 15.7626L20.9423 15.813L20.9519 15.8163L20.9801 15.8931L20.9949 15.8946V15.9321H21.0065L21.0188 15.9812L21.0327 15.9845L21.2578 16.298V16.3219L21.321 16.3819V16.405L21.3742 16.4511V16.4745L21.4135 16.5048V16.5282L21.4407 16.5458V16.5715L21.4787 16.6017V16.6267L21.5049 16.6415L21.5175 16.6931L21.5447 16.709L21.5701 16.7846L21.5973 16.8037L21.6091 16.8508L21.6217 16.8543L21.6384 16.9044L21.6509 16.9057V16.9422H21.6645L21.6781 16.9948L21.69 16.9971L21.7026 17.059L21.7174 17.0603L21.938 17.3756V17.4L22.0033 17.4597L22.0053 17.4816L22.0443 17.5144V17.5375L22.0801 17.5693V17.5932L22.1075 17.608L22.1244 17.6468L22.137 17.6501V17.672L22.1632 17.6889L22.1758 17.7403L22.1977 17.7551L22.2271 17.8342L22.24 17.8349V17.8574L22.2536 17.8606V17.8856H22.2694V17.912L22.2808 17.9143L22.3052 17.9896L22.3196 17.9918V18.0276L22.3324 18.0309V18.0538L22.344 18.0558L22.3483 18.0916L22.3606 18.0928V18.1188L22.3745 18.1223V18.155L22.387 18.159V18.1925L22.4009 18.1971V18.2326L22.4125 18.2346L22.4913 18.3557L22.5565 18.4512L22.5691 18.4544L22.5827 18.4925L22.6218 18.5242V18.5451L22.6512 18.565V18.5872L22.6867 18.6186V18.6403L22.7132 18.6587L22.7278 18.6975H22.7391L22.7552 18.7488L22.7814 18.769V18.7899L22.8076 18.8194V18.8435L22.8215 18.8445V18.8687L22.83 18.871L22.8328 18.8962L22.8592 18.911V18.9468L22.8721 18.9485V18.973L22.8854 18.977L22.8983 19.0256L22.9109 19.0284V19.0644L22.9247 19.0656V19.0898L22.937 19.0916L22.9529 19.1548H22.9665V19.1916L22.9801 19.1948L23.1347 19.4736L23.1864 19.5164V19.5436L23.2282 19.5733V19.5975L23.2533 19.6134V19.6365L23.3443 19.7859L23.3702 19.8015V19.8267L23.3997 19.8561V19.8773L23.4125 19.8816V19.9045L23.4261 19.9068V19.9329H23.4387V19.9549L23.4503 19.9571L23.4775 20.0339L23.4913 20.0392L23.7122 20.3525L23.7384 20.3946L23.751 20.3956V20.4187L23.8076 20.462V20.4892L23.8424 20.5197V20.5429L23.8844 20.5746V20.5965L23.9099 20.6164V20.6386L23.9371 20.6544L23.9507 20.6932L23.9635 20.6955L23.9759 20.7469L24.0023 20.7627L24.0139 20.8131L24.0801 20.9423H24.099L24.0957 20.9549L24.0569 20.9707V20.9821L24.035 20.9803V20.9929L24.0043 20.9856L23.9824 21.0183L23.9665 21.0138V21.0403L23.9572 21.0382L23.9391 21.0571L23.9169 21.0539L23.9033 21.0876L23.8643 21.1171L23.8487 21.114V21.1274L23.8255 21.1211V21.1327L23.7867 21.1516V21.1737L23.7626 21.1823V21.2065L23.7089 21.2327L23.6437 21.281V21.3044L23.6301 21.3029V21.3263L23.5921 21.3452V21.3548L23.5649 21.3515L23.5523 21.3744L23.5006 21.3767L23.3702 21.4125L23.3304 21.4399V21.4522L23.306 21.4472V21.4588L23.2798 21.4535L23.2533 21.4847L23.2282 21.482L23.2136 21.5019L23.1864 21.4996L23.1096 21.5661L23.0854 21.5641L23.0453 21.6051L23.0055 21.6091L22.9917 21.6426L22.9529 21.6479V21.6713L22.9139 21.7016L22.9046 21.6975V21.7101L22.8625 21.7162L22.8532 21.7343L22.8109 21.7288L22.8006 21.7534L22.7741 21.7466V21.7605L22.7459 21.7552V21.7648L22.6933 21.7565V21.767L22.6139 21.7776V21.791L22.5752 21.7824L22.5774 21.7973L22.5533 21.791L22.5376 21.8119L22.485 21.8151L22.3483 21.9043L22.1695 21.9897L21.8741 22.1357L21.834 22.1622L21.6781 22.3042L21.6416 22.3316L21.5238 22.3463L21.4988 22.3777L21.3787 22.3916L21.3681 22.4147H21.3145L21.2903 22.4482L21.2641 22.4442L21.2515 22.4639L21.1946 22.4684L21.1717 22.4989L21.1201 22.5251L21.0939 22.5198V22.5437L21.0695 22.5386L21.042 22.5724L21.0126 22.5661L21.0171 22.5777L20.9896 22.5724V22.584L20.9612 22.5946L20.9645 22.6155L20.938 22.6248V22.6356L20.8866 22.6394L20.874 22.6575L20.6058 22.6814L20.4545 22.4903L20.4157 22.4596L20.4019 22.4241L20.3472 22.3767V22.3548L20.3102 22.3201V22.3012L20.2671 22.2674V22.243L20.2417 22.2266V22.2012L20.2145 22.1866L20.2019 22.138L20.1767 22.1181L20.1631 22.0697L20.1515 22.0685L20.1377 22.0184L20.1251 22.0128V21.9907L20.1105 21.9874L20.0886 21.9602L20.079 21.9592L19.9589 21.7973L19.8632 21.6829V21.6671L19.8088 21.6237V21.6028L19.6816 21.4694V21.446L19.6499 21.4029V21.379L19.6237 21.3628V21.3399L19.593 21.3208V21.3011L19.568 21.281V21.2588L19.5426 21.243V21.2191L19.5164 21.2009V21.176L19.5028 21.1747L19.489 21.1244L19.464 21.1085L19.4492 21.0571H19.4376L19.388 20.9773L19.3744 20.974V20.9373L19.3661 20.9362L19.3502 20.8846L19.3356 20.8826L19.0893 20.5396V20.5157L19.0241 20.4588V20.4336L18.9853 20.4021V20.3777L18.9455 20.3482V20.324L18.9201 20.3092V20.282L18.8939 20.2671L18.877 20.2283L18.8677 20.2251L18.8382 20.1475L18.8141 20.1327L18.5522 19.67L18.5363 19.629L18.4323 19.5293V19.5046L18.3799 19.4598V19.4366L18.327 19.3915V19.3651L18.3018 19.3484L18.2882 19.3094H18.2744V19.2862L18.2502 19.2686V19.2452L18.223 19.2283V19.2034L18.1978 19.1855V19.1651L18.1313 19.0697V19.0611L18.1389 19.0634L18.1366 19.0022Z" fill="#B9C125"/>
<path fill-rule="evenodd" clip-rule="evenodd" d="M18.0693 18.955V18.9192L18.0567 18.9175V18.891L18.0431 18.8888V18.8656L18.0179 18.85V18.8265L17.9494 18.7636V18.752L17.9106 18.7331V18.7079L17.8844 18.7059L17.8729 18.6689L17.7794 18.5777V18.5513L17.7281 18.5072V18.4831L17.6732 18.4377V18.4135L17.6341 18.3798V18.3556H17.6208L17.6079 18.3168L17.5659 18.2874L17.5437 18.2106L17.5153 18.1927L17.5132 18.1685L17.4878 18.1403V18.1139L17.4755 18.1126V18.0867L17.4616 18.0854V18.0622L17.448 18.0612V18.0363L17.4344 18.034V18.0099L17.4228 18.0066L17.3954 17.9288L17.3838 17.9268V17.8917L17.3692 17.8897V17.8656L17.3533 17.8605L17.2073 17.6565V17.6321L17.1851 17.6145V17.6019L17.1592 17.5964L17.143 17.5724L17.1043 17.5407V17.5143L17.0484 17.4702V17.444L16.996 17.4007V17.3757L16.9728 17.3596L16.9572 17.3093L16.9308 17.2924V17.2672L16.9043 17.2503L16.8801 17.1738L16.8529 17.1567L16.8368 17.1073L16.8096 17.0897V17.0539L16.798 17.0516V17.0287L16.7844 17.0254V17.0003L16.7721 16.9972V16.9741L16.7605 16.9695L16.7318 16.894L16.7182 16.893V16.8575L16.7069 16.8542V16.83L16.6898 16.828L16.4923 16.4903V16.4681L16.4261 16.4085V16.3818L16.3724 16.3377L16.3606 16.2979L16.3342 16.281L16.3186 16.2327L16.2798 16.2002L16.2523 16.1211L16.2281 16.1063V16.0836L16.2009 16.0519V16.0307L16.1841 16.0267V16.0013L16.1758 16.0005V15.9771L16.1632 15.9741V15.9496L16.1506 15.9479L16.1211 15.8708L16.1073 15.8675L16.0937 15.793L16.0808 15.791L16.0685 15.7645L16.0559 15.7247L15.9738 15.5661L15.9317 15.4986L15.9076 15.4966V15.484L15.8688 15.4525V15.4271L15.8393 15.4092V15.386L15.8003 15.3533V15.3324L15.7761 15.3273L15.7615 15.2881L15.7487 15.2863L15.7371 15.2483L15.7099 15.2304L15.694 15.179L15.6572 15.1483L15.6318 15.0725L15.6026 15.0549V15.0317L15.5751 15.0012V14.9793L15.5638 14.9771V14.9509L15.551 14.9499V14.9257L15.5361 14.9211L15.5343 14.8962H15.5238V14.872L15.5122 14.8708L15.4817 14.7932L15.4691 14.7909V14.7562L15.4553 14.7524V14.7151L15.4437 14.7141V14.6774L15.4281 14.6751V14.6373H15.4165V14.6018L15.4039 14.5983V14.563L15.3923 14.5585L15.3883 14.5227L15.3777 14.5197L15.3734 14.4734L15.3618 14.4694V14.4218L15.349 14.4197L15.346 14.3727L15.3357 14.3704L15.3198 14.2243L15.3049 14.2211L15.2903 13.976H15.281L15.2873 13.7005L15.3029 13.7035L15.3231 13.4681L15.4492 13.0969H15.4618L15.488 13.0299L15.5029 13.0327V13.0097L15.5152 13.0128V12.9856L15.5281 12.9898V12.9677L15.5417 12.9695V12.9468H15.5542V12.9226L15.5804 12.9035L15.5751 12.8783L15.6026 12.8677L15.6318 12.8045L15.6678 12.7876L15.6784 12.7426L15.7069 12.7352L15.7194 12.7015L15.733 12.7028L15.7456 12.67L15.7731 12.6763L15.798 12.6322L15.8078 12.6343V12.6081L15.8726 12.5502L15.899 12.5554V12.5418L15.9254 12.5343V12.5111L15.9645 12.5091V12.4829L16.0161 12.4691L16.0808 12.4081L16.103 12.4124V12.4021L16.1725 12.3766L16.1695 12.3535L16.2072 12.3472V12.3379L16.2503 12.3313L16.2589 12.3114L16.3123 12.3074L16.3397 12.2777L16.4165 12.2671L16.4301 12.2444L16.4553 12.2505L16.4815 12.2313L16.5082 12.2366V12.2233L16.5344 12.2273V12.2157L16.5596 12.22L16.5734 12.2011L16.6248 12.1956V12.1875L16.6993 12.1747V12.1633L16.7414 12.1714L17.5228 12.1591L17.9411 12.2505V12.2598L18.0841 12.2996L18.3861 12.4409L18.4637 12.4658V12.4784L18.4901 12.4829V12.4945L18.6069 12.5534L18.6195 12.5796L18.6457 12.5847L18.6722 12.6141L18.7004 12.6197V12.6322L18.7248 12.6343L18.7414 12.6607L18.7656 12.6655V12.6786L18.7895 12.6826L18.8202 12.7131L18.8444 12.7164V12.729L18.8835 12.7458L18.8968 12.775L18.9761 12.8118L18.9885 12.8405L19.0305 12.8581V12.8677L19.0653 12.8899V12.9118L19.1315 12.9624V12.973L19.161 12.978L19.2262 13.0624L19.2788 13.0969V13.12L19.3038 13.1261L19.3176 13.1631L19.4113 13.2535V13.2777L19.4491 13.3082V13.3323L19.4891 13.3631V13.3872L19.5166 13.4051L19.5292 13.4439L19.5815 13.487V13.5134L19.6238 13.5451L19.6498 13.6214L19.6752 13.6376V13.6625L19.7014 13.6912V13.7151L19.713 13.7161V13.7416L19.7266 13.7448V13.7678L19.7435 13.771V13.7939L19.753 13.7972V13.8214H19.7699L19.8087 13.9025L20.0467 14.319V14.3422L20.059 14.3452L20.0887 14.386L20.1275 14.4167V14.4427L20.1537 14.4595V14.4847L20.1927 14.5122L20.2061 14.5646L20.2451 14.5953L20.2577 14.626V14.63L20.2713 14.6469V14.6681L20.261 14.6932L20.2471 14.692L19.8938 15.693L19.8679 15.6867L19.8152 15.8003L19.7928 15.7953L19.7266 15.9277L19.575 16.2483L19.5511 16.2526L19.5385 16.3712L19.5246 16.3692L19.4858 16.5321L19.4617 16.5258L19.4491 16.6331L19.4251 16.6268L19.4113 16.7076L19.3861 16.7039L19.3723 16.7729L19.3481 16.7678L19.2589 16.9685L19.2348 16.9635L19.2189 17.033L19.1937 17.0287L19.1673 17.1073L19.1451 17.138L19.0895 17.2L19.0653 17.2327L18.9401 17.4828L18.9044 17.6321L18.8749 17.6417V17.689L18.8656 17.6858V17.7457L18.8384 17.7522L18.8258 17.8469L18.8004 17.854L18.7868 17.9477L18.7636 17.956L18.7507 18.0368L18.7248 18.0318L18.712 18.1023L18.6858 18.1096V18.1348L18.6722 18.1297L18.6583 18.1884L18.6341 18.197L18.6374 18.2327L18.611 18.2368V18.2735L18.5583 18.3612L18.5322 18.3556L18.4808 18.4672L18.4543 18.4619L18.4062 18.5616L18.198 18.8709L18.1368 19.0021L18.1388 19.0635L18.1315 19.0613V19.057L18.1222 19.055L18.0841 18.9583L18.0693 18.955Z" fill="#008D93"/>
<path fill-rule="evenodd" clip-rule="evenodd" d="M28.5101 24.1222L28.4975 24.0731L28.4587 24.0414L28.4449 23.9784L28.4323 23.9761L28.3779 23.893L28.2084 23.7785V23.752L28.1684 23.7344L28.1558 23.7077L28.1263 23.7029L28.0873 23.648L28.0601 23.6427L27.9971 23.5694L27.9667 23.5274L27.9445 23.5239L27.9014 23.4546L27.877 23.4513L27.8108 23.3556L27.7952 23.3519V23.3274L27.7151 23.2526V23.2297L27.6942 23.2118V23.1864L27.6647 23.1695V23.1466L27.6131 23.1234L27.5176 22.9152L27.4932 22.9099L27.3819 22.6618L27.3545 22.6417V22.6198L27.3429 22.6155L27.3295 22.541L27.3167 22.5387V22.5027L27.3041 22.5012V22.4639L27.2892 22.4619V22.4264L27.2769 22.4241L27.2746 22.3758L27.2643 22.3737L27.2472 22.2977L27.2348 22.2947V22.2702L27.2222 22.2675V22.2199L27.2084 22.2189L27.2061 22.1453L27.1945 22.1436L27.1928 22.0814L27.1812 22.0794L27.1789 21.9826L27.1663 21.9804L26.9737 21.3191L26.9613 21.1959L26.9475 21.1939V21.1685L26.9357 21.1677L26.9316 21.0834L26.9054 21.0635V20.933L26.8772 20.9182L26.8719 20.5397L26.8994 20.5366V20.3986L26.9246 20.4052L26.9357 20.2883H26.9475V20.2422L26.9613 20.2453V20.1821L26.9863 20.176V20.1274L27.0127 20.1224L27.0253 20.0393L27.0528 20.0456L27.0875 19.9174L27.1137 19.9214V19.8879L27.1401 19.8909L27.2442 19.7303L27.2701 19.7363L27.3091 19.6575L27.3356 19.6628V19.6366L27.361 19.6406L27.425 19.5575L27.4491 19.5618V19.5376L27.4932 19.5469L27.531 19.5165L27.526 19.4923L27.5532 19.4978V19.4747L27.5796 19.4777L27.6068 19.4475L27.6312 19.4502L27.6458 19.4303L27.6839 19.424V19.3999L27.7491 19.3651L27.8654 19.3495V19.3271L27.9971 19.3168V19.2903L28.1137 19.2747L28.1558 19.285V19.2724L28.181 19.2747V19.2631L28.2303 19.2724L28.2462 19.2515L28.3872 19.2664L28.3988 19.2452L28.5194 19.2664L28.5333 19.2452L28.7415 19.285L28.771 19.2747L29.1213 19.3555V19.379L29.4122 19.4691V19.4923L29.4787 19.5046V19.5293L29.692 19.5945L30.2075 19.8718L30.2946 19.9214V19.933L30.347 19.9433L30.3601 19.9677L30.4124 19.9788V19.9932L30.4515 20.0005V20.0098L30.4923 20.0181V20.032L30.5457 20.0403V20.0529L30.7308 20.1327V20.1591L30.9909 20.3042V20.3264L31.037 20.3483L31.0863 20.4084V20.4165L31.1128 20.4233L31.1254 20.485L31.141 20.4863V20.5366L31.1503 20.5397V20.5598L31.1674 20.5638V20.6008L31.18 20.6026V20.6542H31.1936V20.6774L31.2062 20.6797V20.7404L31.2327 20.7565L31.2357 20.8436L31.2621 20.8605V20.9708L31.2871 20.9821L31.2903 21.1894L31.3198 21.3548L31.3072 21.347V21.3979L31.2936 21.3946V21.6029L31.2684 21.6092L31.2704 21.7172L31.245 21.7228V21.8086L31.2188 21.8164V21.8771L31.2062 21.8754V21.8973L31.1936 21.8963V21.9439L31.1831 21.9426V21.9665L31.1705 21.9635L31.1548 22.0466L31.1433 22.0423L31.1317 22.1003L31.1045 22.098V22.1443L31.0801 22.1413V22.1884L31.0539 22.1834L31.0307 22.2642L31.0012 22.2579L30.9783 22.3251L30.9383 22.3433V22.3798L30.8869 22.442L30.8582 22.4377L30.8615 22.4596L30.8348 22.4568V22.4818L30.8121 22.4767L30.7174 22.5903L30.692 22.5881V22.6112L30.5744 22.6618V22.685L30.4956 22.7079V22.7318L30.278 22.8973L30.2495 22.8897L30.2525 22.9278L30.2256 22.9341V22.9595L30.184 22.9759V22.997L30.144 23.0169V23.0403L30.0959 23.0668L30.0695 23.098V23.1234L30.0445 23.1182L29.9919 23.1685L29.9793 23.1663V23.1897L29.939 23.2065L29.9257 23.2285L29.9012 23.2244L29.485 23.5314L29.4744 23.5294L29.4608 23.5629L29.4356 23.5712V23.5944L29.4104 23.6019V23.6261L29.3832 23.6334V23.6573L29.3429 23.6745V23.7006L29.3049 23.7155L29.2913 23.7497L29.2399 23.7764L29.1611 23.8351L29.1644 23.8583L29.1213 23.8648L29.0463 23.9353L29.0201 23.9278L29.0055 23.951L28.979 23.9447L28.9445 23.9867L28.9015 23.991L28.8876 24.0129L28.8657 24.0086L28.8488 24.0278L28.8267 24.0255L28.8131 24.0477L28.7879 24.0414V24.055L28.7499 24.0582L28.7352 24.0814L28.7088 24.0769L28.6826 24.1076L28.6574 24.1023L28.5879 24.1738L28.5922 24.198H28.5879L28.5796 24.1864V24.1758L28.5605 24.1781L28.527 24.1257L28.5101 24.1222Z" fill="#5FAD4D"/>
<path fill-rule="evenodd" clip-rule="evenodd" d="M20.8871 22.6395L20.9384 22.6355V22.6247L20.9649 22.6154L20.9616 22.5945L20.9901 22.5839V22.5723L21.0175 22.5778L21.013 22.5663L21.0424 22.5723L21.0699 22.5388L21.0943 22.5438V22.5197L21.1205 22.5252L21.1721 22.4988L21.195 22.4683L21.252 22.464L21.2646 22.4444L21.291 22.4481L21.3149 22.4147H21.3686L21.3791 22.3917L21.4993 22.3779L21.5242 22.3464L21.642 22.3315L21.6788 22.3043L21.8344 22.1621L21.8745 22.1359L22.1079 21.9974L22.15 22.0047V21.9828L22.3288 21.8951L22.4854 21.8153L22.5381 21.812L22.5537 21.7911L22.5779 21.7972L22.5756 21.7826L22.6144 21.7911V21.7775L22.6937 21.7669V21.7564L22.7463 21.7647V21.7551L22.7745 21.7606V21.7468L22.801 21.7533L22.8113 21.7289L22.8536 21.7342L22.8629 21.7163L22.905 21.7103V21.6977L22.9143 21.7015L22.9533 21.6712V21.6478L22.9921 21.6428L23.006 21.609L23.0458 21.6053L23.0858 21.564L23.11 21.566L23.1868 21.4997L23.214 21.5018L23.2286 21.4819L23.2538 21.4849L23.2802 21.4537L23.3064 21.459V21.4474L23.3308 21.4524V21.4398L23.3706 21.4126L23.5011 21.3766L23.7093 21.2328L23.763 21.2066V21.1824L23.7871 21.1739V21.1517L23.8259 21.1328V21.1212L23.8491 21.1275V21.1139L23.8647 21.1172L23.9037 21.0878L23.9173 21.054L23.9395 21.0573L23.9576 21.0384L23.967 21.0402V21.014L23.9828 21.0185L24.0047 20.9858L24.0355 20.9931V20.9805L24.0574 20.9822V20.9709L24.0961 20.955L24.0994 20.9424H24.11V20.9435V20.9709L24.1646 21.0046V21.0278L24.2689 21.1087V21.1318L24.2971 21.1369V21.1613L24.3233 21.1676V21.1895L24.3487 21.196L24.3507 21.219L24.3772 21.2255L24.4412 21.3328L24.4676 21.3368L24.4971 21.401L24.5243 21.4093V21.4312L24.5484 21.4358L24.6421 21.5851L24.8302 21.7911V21.8153L24.8806 21.8354V21.8594L24.9461 21.8964V21.9193L24.9723 21.9246V21.95L24.9985 21.953L25.0007 21.9805L25.067 22.0487L25.0942 22.056V22.0792L25.1196 22.0855V22.1067L25.1458 22.1127L25.2392 22.2643L25.2656 22.2673V22.2948L25.2918 22.2978V22.3326L25.316 22.3381L25.661 22.7282V22.7521L25.6882 22.7566L25.7283 22.8236L25.7545 22.8289L25.7567 22.8551L25.7829 22.8594L25.823 22.9256L25.8481 22.9289V22.9563L25.8733 22.9596L25.9166 23.053L25.9438 23.0561V23.0845L25.969 23.0863L26.0078 23.1762L26.0332 23.1832V23.2182L26.0597 23.2243L26.0753 23.2611L26.0866 23.2633L26.1015 23.3273L26.1279 23.3432V23.3691L26.1544 23.3862V23.422L26.1833 23.4376L26.1952 23.5147L26.2226 23.5293V23.5809L26.2339 23.5819L26.2488 23.6438L26.2762 23.6481L26.2911 23.7723L26.3037 23.7766V23.7995L26.3163 23.8005V23.874L26.3435 23.8911L26.411 24.1223L26.4382 24.1256L26.4644 24.2276L26.4885 24.2306L26.5074 24.318L26.5316 24.324L26.5482 24.4474L26.5727 24.4537L26.6167 24.8816L26.6029 24.8796L26.6074 25.072L26.5936 25.0697V25.1561L26.58 25.1528V25.2263L26.558 25.2316L26.5465 25.3263L26.519 25.321L26.4568 25.5134L26.4273 25.5084L26.3276 25.6849L26.3004 25.69L26.2846 25.689L26.2876 25.724L26.2616 25.7204V25.7333L26.209 25.7607L26.1707 25.7869L26.174 25.8239L26.0793 25.8532V25.8743L26.0733 25.872L26.069 25.8781H26.0667L26.0428 25.8899H26.0332L26.0123 25.9068L25.9849 25.9048V25.9141L25.9587 25.9108V25.9237L25.9322 25.9176L25.9197 25.9416L25.8421 25.9499L25.8282 25.971L25.8048 25.9657L25.7935 25.9876L25.725 26.0257L25.6882 26.0247V26.0476L25.455 26.0647V26.0876L25.2027 26.0667V26.0793L25.1785 26.073V26.0856L25.008 26.0551L24.5368 25.9176V25.8929L24.4316 25.864L24.419 25.8375L24.3898 25.8312V25.8184L24.3233 25.8068V25.7932L24.2843 25.7869V25.7753L24.1553 25.7544L24.1427 25.7272L23.9967 25.6978L23.9828 25.6736L23.8912 25.6535V25.6429L23.8398 25.6336V25.621L23.8018 25.6124V25.5998L23.7325 25.5905L23.7186 25.5618L23.6534 25.5484V25.527L23.601 25.5157L23.5895 25.4903L23.4991 25.4608V25.4366L23.4421 25.4273V25.4021L23.3898 25.3822V25.3706L23.3507 25.3588V25.3485L23.2855 25.3147V25.2886L23.2434 25.282V25.2588L23.0352 25.072L23.01 25.0687V25.0435L22.9405 24.971L22.9143 24.968V24.9428L22.8901 24.9372V24.9143L22.6378 24.7114L22.5831 24.6743L22.5726 24.6512L22.5474 24.6449L22.5454 24.6345L22.5179 24.6293V24.6174L22.4645 24.5726L22.2928 24.4547V24.4313L22.2699 24.4265V24.4001L22.2276 24.3938V24.3684L22.1981 24.3653V24.3412L22.0566 24.1825L22.0291 24.177V24.153L21.7743 23.8899V23.8657L21.7272 23.8554V23.832L21.6841 23.8111V23.7995L21.6587 23.7942L21.6453 23.7703L21.6063 23.7607L21.5927 23.7345L21.502 23.6806V23.6564L21.4758 23.6504V23.627L21.4083 23.5912V23.5673L21.3822 23.5617L21.3791 23.5368L21.2749 23.4567V23.4326L21.2467 23.4305L21.1837 23.321L21.156 23.3139V23.2915L21.1311 23.2865L21.1016 23.22L21.0752 23.215V23.1918L21.05 23.1855V23.1518L21.0248 23.1339V23.1097L21.0112 23.1077L20.9838 23.0415L20.9553 23.0372V23.0007L20.9289 22.9951L20.8903 22.9531L20.8765 22.9256V22.9153L20.8387 22.9062V22.8815L20.7314 22.8141V22.7921L20.6262 22.7216V22.6995L20.6042 22.6861H20.6113L20.6063 22.6816L20.8745 22.6574L20.8871 22.6395Z" fill="#669D25"/>
</svg>
