<svg width="40" height="40" viewBox="0 0 40 40" fill="none" xmlns="http://www.w3.org/2000/svg">
<path fill-rule="evenodd" clip-rule="evenodd" d="M20.178 1.83054L20.1189 33.7629L3.45208 33.9459L3.33313 38.0897L36.6665 38.3333L36.6069 34.1285L23.6901 34.0065L23.8093 29.5581C23.8093 29.5581 22.5592 29.4361 24.7616 29.4971C26.964 29.5581 33.2863 28.1556 33.3927 21.5139C33.4521 17.7967 30.5949 15.0543 30.5949 15.0543C30.5949 15.0543 32.4402 14.4451 32.3806 10.3009C32.321 6.15711 28.6902 2.01333 22.7973 1.70851C22.2187 1.67849 21.7674 1.66663 21.4158 1.66663C20.1056 1.66663 20.178 1.83054 20.178 1.83054ZM23.7501 25.9627V5.91349C23.7501 5.91349 28.7502 5.85248 28.7502 10.3008C28.7502 14.7497 25 15.6026 25 15.6026C25 15.6026 29.7624 16.0295 29.7028 21.209C29.6515 25.6567 25.3001 25.9712 24.0703 25.9712C23.8679 25.9712 23.7501 25.9627 23.7501 25.9627ZM7.02372 10.1792C6.72621 14.3842 8.9284 16.6998 11.0116 18.528C13.0951 20.3562 13.9287 21.636 13.9287 22.9156C13.9287 25.9628 8.6309 29.5582 8.6309 29.5582L13.4522 29.741C13.4522 29.741 17.6189 27.669 17.7977 22.55C17.9762 17.431 10.8929 15.1154 10.8929 10.1792C10.8929 5.2432 17.4403 5.66981 17.4403 5.66981L17.6189 1.89162C17.6189 1.89162 16.6703 1.70858 16.1905 1.70858C10.357 1.70858 7.32122 5.97438 7.02372 10.1792Z" fill="url(#paint0_linear_2_217)"/>
<defs>
<linearGradient id="paint0_linear_2_217" x1="4.43634" y1="4.09368" x2="4.43634" y2="38.3333" gradientUnits="userSpaceOnUse">
<stop stop-color="#B3D56F"/>
<stop offset="0.479154" stop-color="#00AD52"/>
<stop offset="1" stop-color="#0079AC"/>
</linearGradient>
</defs>
</svg>
