<svg width="40" height="40" viewBox="0 0 40 40" fill="none" xmlns="http://www.w3.org/2000/svg">
<path fill-rule="evenodd" clip-rule="evenodd" d="M21.1181 1.66663L12.4876 7.30506C10.4256 9.83207 12.7407 11.394 16.9242 13.2604C16.3295 12.9723 16.6876 12.1121 17.1732 11.8508C21.221 9.42256 23.1183 8.17964 23.2747 6.47987C23.4516 4.19363 22.6841 2.41567 21.1181 1.66663ZM20.6155 25.416L27.2376 28.5192C29.7843 26.0134 26.6636 24.5505 23.8434 23.2285L23.8434 23.2284C23.5393 23.0859 23.2387 22.945 22.9491 22.8046C23.587 23.1812 23.1179 23.71 22.7865 23.9261L20.6155 25.416ZM12.6068 30.7828L9.21136 33.0649C6.58969 34.8223 11.3371 39.4792 14.36 37.4501L19.5643 34.0362L12.6068 30.7828Z" fill="#60B1DC"/>
<path fill-rule="evenodd" clip-rule="evenodd" d="M28.0175 8.65912L20.313 13.5567L27.1286 16.7628C28.888 15.9212 30.2276 14.6927 30.312 12.676C30.3532 10.7067 29.6206 9.2991 28.0175 8.65912ZM19.0475 22.109L12.3102 18.9976C10.5382 21.8981 12.927 22.9858 15.1496 23.9978C15.5778 24.1928 15.9998 24.3849 16.3847 24.5867C15.9688 24.3519 16.2894 24.1281 16.5816 23.9241C16.648 23.8778 16.7129 23.8324 16.7674 23.7882L19.0475 22.109Z" fill="#A4C7A2"/>
<path fill-rule="evenodd" clip-rule="evenodd" d="M12.4605 7.32977C10.6805 8.4163 9.10831 10.3856 9.17828 13.1802C9.26265 15.3573 10.6085 17.1147 13.831 18.5964L23.8279 23.2265C27.4332 24.8748 29.5178 26.2617 27.2048 28.5192C29.596 27.4018 31.0632 25.5168 30.6599 22.1831C30.4068 20.15 28.8655 18.7445 26.4743 17.6786L16.9486 13.2604C12.6272 11.2623 10.5056 9.9535 12.4605 7.32977Z" fill="#008BBC"/>
<path fill-rule="evenodd" clip-rule="evenodd" d="M12.2856 18.9976C10.3039 20.0656 8.88192 21.9568 9.07741 24.6957C9.23586 26.9285 10.4479 28.6776 12.7568 29.7148C18.4508 32.2726 24.1119 34.8696 29.419 38.0922C31.092 35.8059 31.1249 31.5174 27.4023 29.7724L16.4197 24.5867C12.2485 22.6153 10.8327 22.1358 12.2856 18.9976Z" fill="#56A954"/>
</svg>
