<svg width="40" height="40" viewBox="0 0 40 40" fill="none" xmlns="http://www.w3.org/2000/svg">
<path fill-rule="evenodd" clip-rule="evenodd" d="M20.0088 20.144L26.0393 23.6706V23.6808L25.9857 23.65C23.8292 25.3537 21.771 25.9172 19.9908 25.9177C18.2106 25.9172 16.1524 25.3537 13.9959 23.65L13.9423 23.6808V23.6706L20.0088 20.144ZM16.9444 7.78274H16.9776L16.9444 15.0196L10.8955 18.407L10.8869 18.3968C9.65396 9.76617 16.9444 7.78274 16.9444 7.78274ZM29.0951 18.3968L29.0865 18.407L23.0376 15.0196L23.0045 7.78274H23.0376C23.0376 7.78274 30.328 9.76617 29.0951 18.3968ZM34.8232 22.2904C33.2033 26.3173 30.4886 27.456 30.4886 27.456C38.476 19.3616 33.5978 10.0341 33.5978 10.0341C32.4185 7.94345 33.9194 7.03214 33.9194 7.03214C30.4886 7.88984 31.5608 10.731 31.5608 10.731C33.2847 14.837 32.9376 18.1727 32.3521 20.2356L31.2215 19.6025L31.2391 19.576C31.2391 19.576 33.9177 9.02158 22.993 5.31996L22.9838 3.33331H20.6787V16.4132L31.4 22.5242C31.2046 22.921 30.9977 23.2945 30.7819 23.6477L20.0135 17.4097L9.19979 23.6477C8.98408 23.2945 8.77705 22.921 8.58171 22.5242L19.303 16.4132V3.33331H16.9979L16.9888 5.31996C6.06393 9.02158 8.74253 19.576 8.74253 19.576L8.76022 19.6025L7.62966 20.2356C7.04417 18.1727 6.69691 14.837 8.42089 10.731C8.42089 10.731 9.49301 7.88984 6.06222 7.03214C6.06222 7.03214 7.56319 7.94345 6.38385 10.0341C6.38385 10.0341 1.50569 19.3616 9.49301 27.456C9.49301 27.456 6.77839 26.3173 5.15852 22.2904C5.15852 22.2904 4.2396 20.3265 1.6665 20.7553C1.6665 20.7553 2.63753 21.1952 3.2079 22.9749C3.2079 22.9749 5.52615 30.3507 14.4784 31.4765V35.5506H18.8741V29.5467C18.8741 29.5467 14.2109 29.5096 10.6508 25.5921L11.7556 24.9472C11.9615 25.1419 15.3464 28.2744 19.964 28.3565V28.3583C19.973 28.3581 19.9818 28.3575 19.9908 28.3572C19.9998 28.3575 20.0086 28.3581 20.0176 28.3583V28.3565C24.6354 28.2744 28.0203 25.1419 28.2261 24.9472L29.3309 25.5921C25.7709 29.5096 21.1076 29.5467 21.1076 29.5467V35.5506H25.5033V31.4765C34.4555 30.3507 36.7738 22.9749 36.7738 22.9749C37.3441 21.1952 38.3152 20.7553 38.3152 20.7553C35.7421 20.3265 34.8232 22.2904 34.8232 22.2904Z" fill="#AB924B"/>
</svg>
