<svg width="40" height="40" viewBox="0 0 40 40" fill="none" xmlns="http://www.w3.org/2000/svg">
<path d="M21.91 13.656L23.26 10.941C23.26 10.941 23.46 10.681 21.91 10.101C20.36 9.52101 15.125 8.42101 11.7 11.526C8.27501 14.631 10.15 18.241 11.7 19.471C13.25 20.701 16.445 22.381 16.445 24.766C16.4419 25.3249 16.3173 25.8764 16.0799 26.3823C15.8425 26.8882 15.4979 27.3365 15.07 27.696C16.94 26.596 20.405 24.636 19.13 20.826C18.13 17.906 14.93 17.276 14.09 15.326C13.25 13.376 16 10.431 19.97 11.591C21.97 12.166 21.91 13.656 21.91 13.656Z" fill="#0071BB"/>
<path d="M34.635 23.881C35.735 20.456 36.94 16.481 33.345 16.256C30.845 16.096 28.135 17.601 26.515 18.686C26.515 18.686 29.045 12.686 29.545 11.651C30.045 10.616 29.865 9.82098 28.395 9.82098H25.34C26.375 10.546 25.685 12.096 25.685 12.096L20.885 23.001C19.46 25.726 17.36 28.001 14.025 28.596C12.8041 28.7057 11.5735 28.5715 10.405 28.201C7.50001 27.081 6.60001 23.951 6.76001 21.671L4.26001 27.171C4.26001 27.171 6.69001 31.016 10.805 31.311C14.09 31.546 16.435 30.721 18.345 28.836C17.3 31.256 20.045 31.181 20.045 31.181H22.63C22.3362 31.0276 22.1081 30.7726 21.9885 30.4634C21.8689 30.1543 21.8659 29.8122 21.98 29.501C22.065 29.266 22.87 27.166 22.87 27.166C26.755 19.261 31 18.661 31.47 19.731C32.35 21.681 29.645 26.971 29 28.811C27.94 31.246 30.695 31.166 30.695 31.166H33.275C32.9945 31.0006 32.7824 30.7403 32.677 30.4323C32.5716 30.1242 32.5797 29.7886 32.7 29.486C32.85 29.041 34.5 24.381 34.635 23.881Z" fill="#0071BB"/>
</svg>
