<svg width="40" height="40" viewBox="0 0 40 40" fill="none" xmlns="http://www.w3.org/2000/svg">
<path fill-rule="evenodd" clip-rule="evenodd" d="M33.2863 11.6667H9.89339C8.58855 11.6667 7.67549 12.4882 7.45769 13.504C7.34061 14.0645 7.55253 14.557 7.98159 14.8978L16.3862 20.4455L16.3921 20.4428L16.3934 20.4455L33.3013 11.7282C33.3687 11.6955 33.3622 11.6667 33.2863 11.6667ZM33.7271 16.6431H23.79L22.1758 24.2484H32.1103C32.1855 24.2484 32.194 24.217 32.1325 24.1765L26.4815 20.451L33.7421 16.7065C33.8075 16.6725 33.8003 16.6431 33.7271 16.6431ZM16.3936 20.4454L29.5761 29.1529C29.6395 29.1934 29.6284 29.2261 29.5545 29.2261H6.16224C4.85413 29.2261 4.29099 28.4033 4.50879 27.3889C4.62652 26.8329 5.04969 26.3345 5.62134 25.997L16.3864 20.4454L16.391 20.4474L16.3936 20.4454Z" fill="#E32313"/>
<path fill-rule="evenodd" clip-rule="evenodd" d="M36.7813 16.6431H35.3548C35.2822 16.6431 35.1671 16.6725 35.1024 16.7065L27.9509 20.3908C27.8849 20.4222 27.8829 20.485 27.9444 20.5262L33.4908 24.1765C33.5529 24.2157 33.6661 24.2484 33.7387 24.2484H35.1645C35.2397 24.2484 35.2476 24.217 35.1867 24.1765L29.5265 20.451L36.797 16.7065C36.8618 16.6725 36.8546 16.6431 36.7813 16.6431Z" fill="#EE7D00"/>
<path fill-rule="evenodd" clip-rule="evenodd" d="M39.832 16.6431H38.4055C38.3316 16.6431 38.2191 16.6725 38.1517 16.7065L31.0029 20.3908C30.9355 20.4222 30.9355 20.485 30.9964 20.5262L36.5428 24.1765C36.6029 24.2157 36.7154 24.2484 36.79 24.2484H38.2152C38.2897 24.2484 38.3008 24.217 38.2374 24.1765L32.5772 20.451L39.847 16.7065C39.9131 16.6725 39.9072 16.6431 39.832 16.6431Z" fill="#FAB900"/>
</svg>
