<svg width="512" height="512" viewBox="0 0 512 512" fill="none" xmlns="http://www.w3.org/2000/svg">
<g clip-path="url(#clip0_764_622)">
<path d="M192 256C262.692 256 320 198.692 320 128C320 57.3076 262.692 0 192 0C121.308 0 64 57.3076 64 128C64 198.692 121.308 256 192 256Z" fill="#52BD6D"/>
<path d="M278.251 298.667H105.749C77.7133 298.701 50.8352 309.853 31.0107 329.677C11.1862 349.502 0.0338737 376.38 0 404.416L0 512H384V404.416C383.966 376.38 372.814 349.502 352.989 329.677C333.165 309.853 306.287 298.701 278.251 298.667Z" fill="#52BD6D"/>
<path d="M448 213.333V149.333H405.333V213.333H341.333V256H405.333V320H448V256H512V213.333H448Z" fill="#52BD6D"/>
</g>
<defs>
<clipPath id="clip0_764_622">
<rect width="512" height="512" fill="white"/>
</clipPath>
</defs>
</svg>
