<svg width="20" height="20" viewBox="0 0 20 20" fill="none" xmlns="http://www.w3.org/2000/svg">
<g id="chat">
<path id="Combined Shape" d="M12.6467 15.49L12.4527 14.7656C12.6298 14.7182 12.8181 14.7372 12.9821 14.8192L12.6467 15.49ZM16.6666 17.5L17.409 17.3939C17.4485 17.6701 17.3314 17.9453 17.1051 18.1084C16.8788 18.2715 16.5807 18.2956 16.3312 18.1708L16.6666 17.5ZM16.1222 13.6895L15.3798 13.7956C15.3437 13.543 15.4384 13.2895 15.6313 13.1225L16.1222 13.6895ZM9.99992 16.5833C5.14816 16.5833 0.916586 13.4103 0.916586 9.16667H2.41659C2.41659 12.2868 5.64694 15.0833 9.99992 15.0833V16.5833ZM12.8407 16.2145C11.9455 16.4542 10.9902 16.5833 9.99992 16.5833V15.0833C10.86 15.0833 11.6848 14.9712 12.4527 14.7656L12.8407 16.2145ZM16.3312 18.1708L12.3113 16.1609L12.9821 14.8192L17.002 16.8292L16.3312 18.1708ZM16.8647 13.5834L17.409 17.3939L15.9241 17.6061L15.3798 13.7956L16.8647 13.5834ZM19.0833 9.16667C19.0833 11.1661 18.1206 12.9512 16.6132 14.2565L15.6313 13.1225C16.8687 12.051 17.5833 10.6583 17.5833 9.16667H19.0833ZM9.99992 1.75C14.8517 1.75 19.0833 4.92303 19.0833 9.16667H17.5833C17.5833 6.04651 14.3529 3.25 9.99992 3.25V1.75ZM0.916586 9.16667C0.916586 4.92303 5.14816 1.75 9.99992 1.75V3.25C5.64694 3.25 2.41659 6.04651 2.41659 9.16667H0.916586Z" fill="#B3B3B3"/>
</g>
</svg>
