<svg width="21" height="20" viewBox="0 0 21 20" fill="none" xmlns="http://www.w3.org/2000/svg">
<path d="M17.6858 3.84172C17.2523 3.41589 16.7377 3.0781 16.1713 2.84763C15.6048 2.61716 14.9977 2.49854 14.3845 2.49854C13.7714 2.49854 13.1643 2.61716 12.5978 2.84763C12.0314 3.0781 11.5167 3.41589 11.0833 3.84172L10.1837 4.72506L9.28415 3.84172C8.4086 2.98198 7.2211 2.49898 5.98289 2.49898C4.74468 2.49898 3.55718 2.98198 2.68163 3.84172C1.80609 4.70147 1.31421 5.86753 1.31421 7.08339C1.31421 8.29925 1.80609 9.46531 2.68163 10.3251L10.1837 17.6917L17.6858 10.3251C18.1195 9.89943 18.4635 9.39407 18.6982 8.83785C18.9329 8.28164 19.0537 7.68546 19.0537 7.08339C19.0537 6.48132 18.9329 5.88514 18.6982 5.32893C18.4635 4.77271 18.1195 4.26735 17.6858 3.84172Z" stroke="#B3B3B3" stroke-width="1.5" stroke-linecap="round" stroke-linejoin="round"/>
</svg>
