<svg width="76" height="75" viewBox="0 0 76 75" fill="none" xmlns="http://www.w3.org/2000/svg">
<path d="M0.575195 4C0.575195 1.79086 2.36606 0 4.5752 0H32.6011C34.8102 0 36.6011 1.79086 36.6011 4V32.0259C36.6011 34.235 34.8102 36.0259 32.6011 36.0259H4.57519C2.36605 36.0259 0.575195 34.235 0.575195 32.0259V4Z" fill="white"/>
<path d="M6.5791 8.00403C6.5791 6.89946 7.47453 6.00403 8.5791 6.00403H28.5963C29.7009 6.00403 30.5963 6.89946 30.5963 8.00403V28.0213C30.5963 29.1258 29.7009 30.0213 28.5963 30.0213H8.5791C7.47453 30.0213 6.5791 29.1258 6.5791 28.0213V8.00403Z" fill="#52BD6D"/>
<path d="M39.1738 42.5991C39.1738 40.39 40.9647 38.5991 43.1738 38.5991H71.1997C73.4088 38.5991 75.1997 40.39 75.1997 42.5991V70.625C75.1997 72.8341 73.4088 74.625 71.1997 74.625H43.1738C40.9647 74.625 39.1738 72.8341 39.1738 70.625V42.5991Z" fill="white"/>
<path d="M45.1777 46.6032C45.1777 45.4986 46.0732 44.6031 47.1777 44.6031H67.195C68.2995 44.6031 69.195 45.4986 69.195 46.6031V66.6204C69.195 67.725 68.2995 68.6204 67.195 68.6204H47.1777C46.0732 68.6204 45.1777 67.725 45.1777 66.6204V46.6032Z" fill="#52BD6D"/>
<path d="M75.1997 18.0129C75.1997 27.9612 67.135 36.0259 57.1868 36.0259C47.2385 36.0259 39.1738 27.9612 39.1738 18.0129C39.1738 8.06466 47.2385 0 57.1868 0C67.135 0 75.1997 8.06466 75.1997 18.0129Z" fill="white"/>
<path d="M75.1997 18.0129C75.1997 27.9612 67.135 36.0259 57.1868 36.0259C47.2385 36.0259 39.1738 27.9612 39.1738 18.0129C39.1738 8.06466 47.2385 0 57.1868 0C67.135 0 75.1997 8.06466 75.1997 18.0129Z" fill="white"/>
<path d="M69.195 18.0126C69.195 24.6448 63.8185 30.0213 57.1864 30.0213C50.5542 30.0213 45.1777 24.6448 45.1777 18.0126C45.1777 11.3805 50.5542 6.00403 57.1864 6.00403C63.8185 6.00403 69.195 11.3805 69.195 18.0126Z" fill="#52BD6D"/>
<path d="M69.195 18.0126C69.195 24.6448 63.8185 30.0213 57.1864 30.0213C50.5542 30.0213 45.1777 24.6448 45.1777 18.0126C45.1777 11.3805 50.5542 6.00403 57.1864 6.00403C63.8185 6.00403 69.195 11.3805 69.195 18.0126Z" fill="#52BD6D"/>
<path d="M36.6011 56.6121C36.6011 66.5603 28.5364 74.625 18.5881 74.625C8.63986 74.625 0.575195 66.5603 0.575195 56.6121C0.575195 46.6638 8.63986 38.5991 18.5881 38.5991C28.5364 38.5991 36.6011 46.6638 36.6011 56.6121Z" fill="white"/>
<path d="M36.6011 56.6121C36.6011 66.5603 28.5364 74.625 18.5881 74.625C8.63986 74.625 0.575195 66.5603 0.575195 56.6121C0.575195 46.6638 8.63986 38.5991 18.5881 38.5991C28.5364 38.5991 36.6011 46.6638 36.6011 56.6121Z" fill="white"/>
<path d="M30.5963 56.6118C30.5963 63.2439 25.2199 68.6204 18.5877 68.6204C11.9555 68.6204 6.5791 63.2439 6.5791 56.6118C6.5791 49.9796 11.9555 44.6031 18.5877 44.6031C25.2199 44.6031 30.5963 49.9796 30.5963 56.6118Z" fill="#52BD6D"/>
<path d="M30.5963 56.6118C30.5963 63.2439 25.2199 68.6204 18.5877 68.6204C11.9555 68.6204 6.5791 63.2439 6.5791 56.6118C6.5791 49.9796 11.9555 44.6031 18.5877 44.6031C25.2199 44.6031 30.5963 49.9796 30.5963 56.6118Z" fill="#52BD6D"/>
</svg>
