<svg width="97" height="16" viewBox="0 0 97 16" fill="none" xmlns="http://www.w3.org/2000/svg">
<path d="M3.852 15H0.24L1.356 0.936H6.984L8.04 5.652L8.52 8.04L8.976 5.664L9.912 0.936H14.928L15.96 15H12.228L11.616 6.732L11.472 3.684L9.636 13.596H6.504L4.296 3.684L4.224 6.732L3.852 15ZM21.967 13.812C22.319 13.812 22.587 13.668 22.771 13.38C22.963 13.084 23.059 12.68 23.059 12.168V8.376C23.059 6.816 22.691 6.036 21.955 6.036C21.611 6.036 21.343 6.176 21.151 6.456C20.959 6.736 20.863 7.132 20.863 7.644V11.544C20.863 13.056 21.231 13.812 21.967 13.812ZM21.871 15.252C20.039 15.252 18.699 14.836 17.851 14.004C17.003 13.172 16.579 11.844 16.579 10.02C16.579 8.212 17.007 6.852 17.863 5.94C18.719 5.02 20.111 4.56 22.039 4.56C23.919 4.56 25.275 5 26.107 5.88C26.947 6.752 27.367 8.076 27.367 9.852C27.367 11.692 26.923 13.052 26.035 13.932C25.155 14.812 23.767 15.252 21.871 15.252ZM32.5503 15H28.6743V7.236L27.9543 6.792V5.436L30.5343 4.8H31.5063L31.8543 7.656C32.1823 5.696 33.2343 4.716 35.0103 4.716C35.2103 4.716 35.4183 4.752 35.6343 4.824L35.2263 9.096C35.0583 8.944 34.6903 8.868 34.1223 8.868C33.3063 8.868 32.7823 9.084 32.5503 9.516V15ZM41.9724 8.796C41.9724 7.78 41.9204 7.06 41.8164 6.636C41.7124 6.212 41.5204 6 41.2404 6C41.0004 6 40.8044 6.044 40.6524 6.132C40.5004 6.212 40.3884 6.344 40.3164 6.528C40.2444 6.704 40.1964 6.888 40.1724 7.08C40.1564 7.264 40.1484 7.5 40.1484 7.788V8.796H41.9724ZM41.0124 15.252C40.1164 15.252 39.3364 15.116 38.6724 14.844C38.0164 14.572 37.4964 14.192 37.1124 13.704C36.7364 13.216 36.4604 12.668 36.2844 12.06C36.1084 11.444 36.0204 10.76 36.0204 10.008C36.0204 8.216 36.4764 6.86 37.3884 5.94C38.3004 5.02 39.5764 4.56 41.2164 4.56C42.7924 4.56 43.9204 4.932 44.6004 5.676C45.2804 6.412 45.6204 7.6 45.6204 9.24V10.572H40.1364V10.8C40.1364 11.272 40.1844 11.66 40.2804 11.964C40.3844 12.268 40.5324 12.492 40.7244 12.636C40.9164 12.78 41.1124 12.876 41.3124 12.924C41.5124 12.972 41.7564 12.996 42.0444 12.996C42.3244 12.996 42.6244 12.96 42.9444 12.888C43.2724 12.816 43.6004 12.704 43.9284 12.552C44.2644 12.4 44.5444 12.22 44.7684 12.012L45.4764 13.224C45.1804 13.704 44.7444 14.108 44.1684 14.436C43.6004 14.756 43.0524 14.972 42.5244 15.084C41.9964 15.196 41.4924 15.252 41.0124 15.252ZM54.6528 15H51.0408L52.1568 0.936H57.7848L58.8408 5.652L59.3208 8.04L59.7768 5.664L60.7128 0.936H65.7288L66.7608 15H63.0288L62.4168 6.732L62.2728 3.684L60.4368 13.596H57.3048L55.0968 3.684L55.0248 6.732L54.6528 15ZM72.7678 13.812C73.1198 13.812 73.3878 13.668 73.5718 13.38C73.7638 13.084 73.8598 12.68 73.8598 12.168V8.376C73.8598 6.816 73.4918 6.036 72.7558 6.036C72.4118 6.036 72.1438 6.176 71.9518 6.456C71.7598 6.736 71.6638 7.132 71.6638 7.644V11.544C71.6638 13.056 72.0318 13.812 72.7678 13.812ZM72.6718 15.252C70.8398 15.252 69.4998 14.836 68.6518 14.004C67.8038 13.172 67.3798 11.844 67.3798 10.02C67.3798 8.212 67.8078 6.852 68.6638 5.94C69.5198 5.02 70.9118 4.56 72.8398 4.56C74.7198 4.56 76.0758 5 76.9078 5.88C77.7478 6.752 78.1678 8.076 78.1678 9.852C78.1678 11.692 77.7238 13.052 76.8358 13.932C75.9558 14.812 74.5678 15.252 72.6718 15.252ZM83.3511 15H79.4751V7.236L78.7551 6.792V5.436L81.3351 4.8H82.3071L82.6551 7.656C82.9831 5.696 84.0351 4.716 85.8111 4.716C86.0111 4.716 86.2191 4.752 86.4351 4.824L86.0271 9.096C85.8591 8.944 85.4911 8.868 84.9231 8.868C84.1071 8.868 83.5831 9.084 83.3511 9.516V15ZM92.7732 8.796C92.7732 7.78 92.7212 7.06 92.6172 6.636C92.5132 6.212 92.3212 6 92.0412 6C91.8012 6 91.6052 6.044 91.4532 6.132C91.3012 6.212 91.1892 6.344 91.1172 6.528C91.0452 6.704 90.9972 6.888 90.9732 7.08C90.9572 7.264 90.9492 7.5 90.9492 7.788V8.796H92.7732ZM91.8132 15.252C90.9172 15.252 90.1372 15.116 89.4732 14.844C88.8172 14.572 88.2972 14.192 87.9132 13.704C87.5372 13.216 87.2612 12.668 87.0852 12.06C86.9092 11.444 86.8212 10.76 86.8212 10.008C86.8212 8.216 87.2772 6.86 88.1892 5.94C89.1012 5.02 90.3772 4.56 92.0172 4.56C93.5932 4.56 94.7212 4.932 95.4012 5.676C96.0812 6.412 96.4212 7.6 96.4212 9.24V10.572H90.9372V10.8C90.9372 11.272 90.9852 11.66 91.0812 11.964C91.1852 12.268 91.3332 12.492 91.5252 12.636C91.7172 12.78 91.9132 12.876 92.1132 12.924C92.3132 12.972 92.5572 12.996 92.8452 12.996C93.1252 12.996 93.4252 12.96 93.7452 12.888C94.0732 12.816 94.4012 12.704 94.7292 12.552C95.0652 12.4 95.3452 12.22 95.5692 12.012L96.2772 13.224C95.9812 13.704 95.5452 14.108 94.9692 14.436C94.4012 14.756 93.8532 14.972 93.3252 15.084C92.7972 15.196 92.2932 15.252 91.8132 15.252Z" fill="white"/>
</svg>
