<svg width="17" height="17" viewBox="0 0 17 17" fill="none" xmlns="http://www.w3.org/2000/svg">
<path d="M16.5585 14.7024L13.572 11.8481C14.7312 10.4554 15.2926 8.68768 15.1407 6.90839C14.9888 5.1291 14.1352 3.47351 12.7553 2.28204C11.3754 1.09057 9.57422 0.453781 7.72203 0.502615C5.86985 0.551448 4.10747 1.28219 2.79728 2.54459C1.4871 3.80698 0.728689 5.50508 0.678007 7.28971C0.627324 9.07434 1.28822 10.8099 2.52479 12.1394C3.76137 13.4689 5.47964 14.2915 7.32628 14.4378C9.17293 14.5842 11.0076 14.0432 12.453 12.9263L15.4154 15.7806C15.4902 15.8533 15.5793 15.911 15.6774 15.9503C15.7754 15.9897 15.8807 16.01 15.9869 16.01C16.0932 16.01 16.1984 15.9897 16.2965 15.9503C16.3946 15.911 16.4836 15.8533 16.5585 15.7806C16.7036 15.6359 16.7847 15.4427 16.7847 15.2415C16.7847 15.0404 16.7036 14.8471 16.5585 14.7024ZM7.93703 12.9263C6.82255 12.9263 5.73309 12.6078 4.80643 12.0112C3.87977 11.4147 3.15753 10.5667 2.73103 9.5746C2.30454 8.58251 2.19295 7.49084 2.41037 6.43764C2.6278 5.38444 3.16447 4.41701 3.95253 3.6577C4.74059 2.89839 5.74464 2.38129 6.83771 2.17179C7.93078 1.9623 9.06378 2.06982 10.0934 2.48076C11.1231 2.89169 12.0031 3.58759 12.6223 4.48045C13.2415 5.37331 13.572 6.42303 13.572 7.49686C13.572 8.93683 12.9783 10.3178 11.9215 11.336C10.8648 12.3542 9.43151 12.9263 7.93703 12.9263Z" fill="#25282B" stroke="#25282B" stroke-width="0.3"/>
</svg>
