<svg width="64" height="64" viewBox="0 0 64 64" fill="none" xmlns="http://www.w3.org/2000/svg">
<rect width="64" height="64" rx="10" fill="#52BD6D"/>
<path d="M14.8148 18.8148C14.8148 16.6057 16.6057 14.8148 18.8148 14.8148H27.4074C29.6166 14.8148 31.4074 16.6057 31.4074 18.8148V27.4074C31.4074 29.6166 29.6166 31.4074 27.4074 31.4074H18.8148C16.6057 31.4074 14.8148 29.6166 14.8148 27.4074V18.8148Z" fill="white"/>
<path d="M17.5801 19.5801C17.5801 18.4755 18.4756 17.5801 19.5801 17.5801H26.6419C27.7464 17.5801 28.6419 18.4755 28.6419 19.5801V26.6418C28.6419 27.7464 27.7464 28.6418 26.6419 28.6418H19.5801C18.4756 28.6418 17.5801 27.7464 17.5801 26.6418V19.5801Z" fill="#52BD6D"/>
<path d="M32.5926 36.5926C32.5926 34.3835 34.3835 32.5926 36.5926 32.5926H45.1852C47.3943 32.5926 49.1852 34.3835 49.1852 36.5926V45.1852C49.1852 47.3943 47.3943 49.1852 45.1852 49.1852H36.5926C34.3835 49.1852 32.5926 47.3943 32.5926 45.1852V36.5926Z" fill="white"/>
<path d="M35.3579 37.3579C35.3579 36.2533 36.2533 35.3579 37.3579 35.3579H44.4196C45.5242 35.3579 46.4196 36.2533 46.4196 37.3579V44.4196C46.4196 45.5242 45.5242 46.4196 44.4196 46.4196H37.3579C36.2533 46.4196 35.3579 45.5242 35.3579 44.4196V37.3579Z" fill="#52BD6D"/>
<path d="M49.1852 23.1111C49.1852 27.693 45.4708 31.4074 40.8889 31.4074C36.307 31.4074 32.5926 27.693 32.5926 23.1111C32.5926 18.5292 36.307 14.8148 40.8889 14.8148C45.4708 14.8148 49.1852 18.5292 49.1852 23.1111Z" fill="white"/>
<path d="M49.1852 23.1111C49.1852 27.693 45.4708 31.4074 40.8889 31.4074C36.307 31.4074 32.5926 27.693 32.5926 23.1111C32.5926 18.5292 36.307 14.8148 40.8889 14.8148C45.4708 14.8148 49.1852 18.5292 49.1852 23.1111Z" fill="white"/>
<path d="M46.4196 23.111C46.4196 26.1656 43.9434 28.6418 40.8888 28.6418C37.8342 28.6418 35.3579 26.1656 35.3579 23.111C35.3579 20.0564 37.8342 17.5801 40.8888 17.5801C43.9434 17.5801 46.4196 20.0564 46.4196 23.111Z" fill="#52BD6D"/>
<path d="M46.4196 23.111C46.4196 26.1656 43.9434 28.6418 40.8888 28.6418C37.8342 28.6418 35.3579 26.1656 35.3579 23.111C35.3579 20.0564 37.8342 17.5801 40.8888 17.5801C43.9434 17.5801 46.4196 20.0564 46.4196 23.111Z" fill="#52BD6D"/>
<path d="M31.4074 40.8889C31.4074 45.4708 27.693 49.1852 23.1111 49.1852C18.5292 49.1852 14.8148 45.4708 14.8148 40.8889C14.8148 36.307 18.5292 32.5926 23.1111 32.5926C27.693 32.5926 31.4074 36.307 31.4074 40.8889Z" fill="white"/>
<path d="M31.4074 40.8889C31.4074 45.4708 27.693 49.1852 23.1111 49.1852C18.5292 49.1852 14.8148 45.4708 14.8148 40.8889C14.8148 36.307 18.5292 32.5926 23.1111 32.5926C27.693 32.5926 31.4074 36.307 31.4074 40.8889Z" fill="white"/>
<path d="M28.6419 40.8888C28.6419 43.9434 26.1656 46.4196 23.111 46.4196C20.0564 46.4196 17.5801 43.9434 17.5801 40.8888C17.5801 37.8341 20.0564 35.3579 23.111 35.3579C26.1656 35.3579 28.6419 37.8341 28.6419 40.8888Z" fill="#52BD6D"/>
<path d="M28.6419 40.8888C28.6419 43.9434 26.1656 46.4196 23.111 46.4196C20.0564 46.4196 17.5801 43.9434 17.5801 40.8888C17.5801 37.8341 20.0564 35.3579 23.111 35.3579C26.1656 35.3579 28.6419 37.8341 28.6419 40.8888Z" fill="#52BD6D"/>
</svg>
